{
    "asset" : {
        "generator" : "Khronos glTF Blender I/O v1.6.16",
        "version" : "2.0"
    },
    "extensionsUsed" : [
        "KHR_texture_transform"
    ],
    "extensionsRequired" : [
        "KHR_texture_transform"
    ],
    "scene" : 0,
    "scenes" : [
        {
            "name" : "Scene",
            "nodes" : [
                0,
                1
            ]
        }
    ],
    "nodes" : [
        {
            "name" : "Light",
            "rotation" : [
                0.16907575726509094,
                0.7558803558349609,
                -0.27217137813568115,
                0.570947527885437
            ],
            "translation" : [
                4.076245307922363,
                5.903861999511719,
                -1.0054539442062378
            ]
        },
        {
            "mesh" : 0,
            "name" : "Gung",
            "rotation" : [
                0.7071068286895752,
                0,
                0,
                0.7071067094802856
            ],
            "scale" : [
                0.009999999776482582,
                0.009999999776482582,
                0.009999999776482582
            ],
            "translation" : [
                -0.0028039063327014446,
                0.00611356133595109,
                0.004406648688018322
            ]
        }
    ],
    "materials" : [
        {
            "doubleSided" : true,
            "name" : "blue07",
            "pbrMetallicRoughness" : {
                "baseColorTexture" : {
                    "extensions" : {
                        "KHR_texture_transform" : {
                            "offset" : [
                                0,
                                -1
                            ]
                        }
                    },
                    "index" : 0
                },
                "metallicFactor" : 0,
                "roughnessFactor" : 0.4343145787715912
            }
        },
        {
            "doubleSided" : true,
            "name" : "grey02",
            "pbrMetallicRoughness" : {
                "baseColorTexture" : {
                    "extensions" : {
                        "KHR_texture_transform" : {
                            "offset" : [
                                0,
                                -1
                            ]
                        }
                    },
                    "index" : 1
                },
                "metallicFactor" : 0,
                "roughnessFactor" : 0.4343145787715912
            }
        },
        {
            "doubleSided" : true,
            "name" : "red02",
            "pbrMetallicRoughness" : {
                "baseColorTexture" : {
                    "extensions" : {
                        "KHR_texture_transform" : {
                            "offset" : [
                                0,
                                -1
                            ]
                        }
                    },
                    "index" : 2
                },
                "metallicFactor" : 0,
                "roughnessFactor" : 0.4343145787715912
            }
        },
        {
            "doubleSided" : true,
            "name" : "yellow02",
            "pbrMetallicRoughness" : {
                "baseColorTexture" : {
                    "extensions" : {
                        "KHR_texture_transform" : {
                            "offset" : [
                                0,
                                -1
                            ]
                        }
                    },
                    "index" : 3
                },
                "metallicFactor" : 0,
                "roughnessFactor" : 0.4343145787715912
            }
        },
        {
            "doubleSided" : true,
            "name" : "yellow01",
            "pbrMetallicRoughness" : {
                "baseColorTexture" : {
                    "extensions" : {
                        "KHR_texture_transform" : {
                            "offset" : [
                                0,
                                -1
                            ]
                        }
                    },
                    "index" : 4
                },
                "metallicFactor" : 0,
                "roughnessFactor" : 0.4343145787715912
            }
        },
        {
            "doubleSided" : true,
            "name" : "yellow03",
            "pbrMetallicRoughness" : {
                "baseColorTexture" : {
                    "extensions" : {
                        "KHR_texture_transform" : {
                            "offset" : [
                                0,
                                -1
                            ]
                        }
                    },
                    "index" : 5
                },
                "metallicFactor" : 0,
                "roughnessFactor" : 0.4343145787715912
            }
        },
        {
            "doubleSided" : true,
            "name" : "brown04",
            "pbrMetallicRoughness" : {
                "baseColorTexture" : {
                    "extensions" : {
                        "KHR_texture_transform" : {
                            "offset" : [
                                0,
                                -1
                            ]
                        }
                    },
                    "index" : 6
                },
                "metallicFactor" : 0,
                "roughnessFactor" : 0.4343145787715912
            }
        }
    ],
    "meshes" : [
        {
            "name" : "\uba54\uc26c",
            "primitives" : [
                {
                    "attributes" : {
                        "POSITION" : 0,
                        "NORMAL" : 1
                    },
                    "indices" : 2,
                    "material" : 0
                },
                {
                    "attributes" : {
                        "POSITION" : 3,
                        "NORMAL" : 4
                    },
                    "indices" : 5,
                    "material" : 1
                },
                {
                    "attributes" : {
                        "POSITION" : 6,
                        "NORMAL" : 7
                    },
                    "indices" : 8,
                    "material" : 2
                },
                {
                    "attributes" : {
                        "POSITION" : 9,
                        "NORMAL" : 10
                    },
                    "indices" : 11,
                    "material" : 3
                },
                {
                    "attributes" : {
                        "POSITION" : 12,
                        "NORMAL" : 13
                    },
                    "indices" : 14,
                    "material" : 4
                },
                {
                    "attributes" : {
                        "POSITION" : 15,
                        "NORMAL" : 16
                    },
                    "indices" : 17,
                    "material" : 5
                },
                {
                    "attributes" : {
                        "POSITION" : 18,
                        "NORMAL" : 19
                    },
                    "indices" : 20,
                    "material" : 6
                }
            ]
        }
    ],
    "textures" : [
        {
            "sampler" : 0,
            "source" : 0
        },
        {
            "sampler" : 0,
            "source" : 1
        },
        {
            "sampler" : 0,
            "source" : 2
        },
        {
            "sampler" : 0,
            "source" : 3
        },
        {
            "sampler" : 0,
            "source" : 4
        },
        {
            "sampler" : 0,
            "source" : 5
        },
        {
            "sampler" : 0,
            "source" : 6
        }
    ],
    "images" : [
        {
            "bufferView" : 3,
            "mimeType" : "image/jpeg",
            "name" : "blue07"
        },
        {
            "bufferView" : 7,
            "mimeType" : "image/jpeg",
            "name" : "grey02"
        },
        {
            "bufferView" : 11,
            "mimeType" : "image/jpeg",
            "name" : "red02"
        },
        {
            "bufferView" : 15,
            "mimeType" : "image/jpeg",
            "name" : "yellow02"
        },
        {
            "bufferView" : 19,
            "mimeType" : "image/jpeg",
            "name" : "yellow01"
        },
        {
            "bufferView" : 23,
            "mimeType" : "image/jpeg",
            "name" : "yellow03"
        },
        {
            "bufferView" : 27,
            "mimeType" : "image/jpeg",
            "name" : "brown04"
        }
    ],
    "accessors" : [
        {
            "bufferView" : 0,
            "componentType" : 5126,
            "count" : 432,
            "max" : [
                1.7844096422195435,
                1.553340196609497,
                -0.4959809184074402
            ],
            "min" : [
                -1.885237455368042,
                -1.5538387298583984,
                -1.1505533456802368
            ],
            "type" : "VEC3"
        },
        {
            "bufferView" : 1,
            "componentType" : 5126,
            "count" : 432,
            "type" : "VEC3"
        },
        {
            "bufferView" : 2,
            "componentType" : 5123,
            "count" : 648,
            "type" : "SCALAR"
        },
        {
            "bufferView" : 4,
            "componentType" : 5126,
            "count" : 768,
            "max" : [
                1.769759178161621,
                1.5460214614868164,
                -0.23869308829307556
            ],
            "min" : [
                -1.8705869913101196,
                -1.5465199947357178,
                -1.2761139869689941
            ],
            "type" : "VEC3"
        },
        {
            "bufferView" : 5,
            "componentType" : 5126,
            "count" : 768,
            "type" : "VEC3"
        },
        {
            "bufferView" : 6,
            "componentType" : 5123,
            "count" : 1446,
            "type" : "SCALAR"
        },
        {
            "bufferView" : 8,
            "componentType" : 5126,
            "count" : 3559,
            "max" : [
                1.250017762184143,
                0.9887018203735352,
                0.2642160654067993
            ],
            "min" : [
                -1.3508455753326416,
                -0.9892003536224365,
                -0.4919295012950897
            ],
            "type" : "VEC3"
        },
        {
            "bufferView" : 9,
            "componentType" : 5126,
            "count" : 3559,
            "type" : "VEC3"
        },
        {
            "bufferView" : 10,
            "componentType" : 5123,
            "count" : 7956,
            "type" : "SCALAR"
        },
        {
            "bufferView" : 12,
            "componentType" : 5126,
            "count" : 20242,
            "max" : [
                1.3028277158737183,
                1.0416773557662964,
                -0.29282307624816895
            ],
            "min" : [
                -1.4036542177200317,
                -1.0421769618988037,
                -0.48719117045402527
            ],
            "type" : "VEC3"
        },
        {
            "bufferView" : 13,
            "componentType" : 5126,
            "count" : 20242,
            "type" : "VEC3"
        },
        {
            "bufferView" : 14,
            "componentType" : 5123,
            "count" : 38496,
            "type" : "SCALAR"
        },
        {
            "bufferView" : 16,
            "componentType" : 5126,
            "count" : 608,
            "max" : [
                1.1939514875411987,
                0.9326356053352356,
                0.19198746979236603
            ],
            "min" : [
                -1.3001598119735718,
                -0.9326353669166565,
                -0.20877206325531006
            ],
            "type" : "VEC3"
        },
        {
            "bufferView" : 17,
            "componentType" : 5126,
            "count" : 608,
            "type" : "VEC3"
        },
        {
            "bufferView" : 18,
            "componentType" : 5123,
            "count" : 912,
            "type" : "SCALAR"
        },
        {
            "bufferView" : 20,
            "componentType" : 5126,
            "count" : 5134,
            "max" : [
                1.1955088376998901,
                0.9341930150985718,
                0.1996457278728485
            ],
            "min" : [
                -1.3001598119735718,
                -0.9341927766799927,
                -0.21655891835689545
            ],
            "type" : "VEC3"
        },
        {
            "bufferView" : 21,
            "componentType" : 5126,
            "count" : 5134,
            "type" : "VEC3"
        },
        {
            "bufferView" : 22,
            "componentType" : 5123,
            "count" : 10980,
            "type" : "SCALAR"
        },
        {
            "bufferView" : 24,
            "componentType" : 5126,
            "count" : 1254,
            "max" : [
                2.162672281265259,
                2.327752113342285,
                0.67207270860672
            ],
            "min" : [
                -2.2634999752044678,
                -2.2362473011016846,
                0.1982528418302536
            ],
            "type" : "VEC3"
        },
        {
            "bufferView" : 25,
            "componentType" : 5126,
            "count" : 1254,
            "type" : "VEC3"
        },
        {
            "bufferView" : 26,
            "componentType" : 5123,
            "count" : 2016,
            "type" : "SCALAR"
        }
    ],
    "bufferViews" : [
        {
            "buffer" : 0,
            "byteLength" : 5184,
            "byteOffset" : 0
        },
        {
            "buffer" : 0,
            "byteLength" : 5184,
            "byteOffset" : 5184
        },
        {
            "buffer" : 0,
            "byteLength" : 1296,
            "byteOffset" : 10368
        },
        {
            "buffer" : 0,
            "byteLength" : 12737,
            "byteOffset" : 11664
        },
        {
            "buffer" : 0,
            "byteLength" : 9216,
            "byteOffset" : 24404
        },
        {
            "buffer" : 0,
            "byteLength" : 9216,
            "byteOffset" : 33620
        },
        {
            "buffer" : 0,
            "byteLength" : 2892,
            "byteOffset" : 42836
        },
        {
            "buffer" : 0,
            "byteLength" : 12698,
            "byteOffset" : 45728
        },
        {
            "buffer" : 0,
            "byteLength" : 42708,
            "byteOffset" : 58428
        },
        {
            "buffer" : 0,
            "byteLength" : 42708,
            "byteOffset" : 101136
        },
        {
            "buffer" : 0,
            "byteLength" : 15912,
            "byteOffset" : 143844
        },
        {
            "buffer" : 0,
            "byteLength" : 12736,
            "byteOffset" : 159756
        },
        {
            "buffer" : 0,
            "byteLength" : 242904,
            "byteOffset" : 172492
        },
        {
            "buffer" : 0,
            "byteLength" : 242904,
            "byteOffset" : 415396
        },
        {
            "buffer" : 0,
            "byteLength" : 76992,
            "byteOffset" : 658300
        },
        {
            "buffer" : 0,
            "byteLength" : 12712,
            "byteOffset" : 735292
        },
        {
            "buffer" : 0,
            "byteLength" : 7296,
            "byteOffset" : 748004
        },
        {
            "buffer" : 0,
            "byteLength" : 7296,
            "byteOffset" : 755300
        },
        {
            "buffer" : 0,
            "byteLength" : 1824,
            "byteOffset" : 762596
        },
        {
            "buffer" : 0,
            "byteLength" : 12718,
            "byteOffset" : 764420
        },
        {
            "buffer" : 0,
            "byteLength" : 61608,
            "byteOffset" : 777140
        },
        {
            "buffer" : 0,
            "byteLength" : 61608,
            "byteOffset" : 838748
        },
        {
            "buffer" : 0,
            "byteLength" : 21960,
            "byteOffset" : 900356
        },
        {
            "buffer" : 0,
            "byteLength" : 12721,
            "byteOffset" : 922316
        },
        {
            "buffer" : 0,
            "byteLength" : 15048,
            "byteOffset" : 935040
        },
        {
            "buffer" : 0,
            "byteLength" : 15048,
            "byteOffset" : 950088
        },
        {
            "buffer" : 0,
            "byteLength" : 4032,
            "byteOffset" : 965136
        },
        {
            "buffer" : 0,
            "byteLength" : 12740,
            "byteOffset" : 969168
        }
    ],
    "samplers" : [
        {
            "magFilter" : 9729,
            "minFilter" : 9987
        }
    ],
    "buffers" : [
        {
            "byteLength" : 981908,
            "uri" : "data:application/octet-stream;base64,"
        }
    ]
}
