{
  "accessors": [
    {
      "bufferView": 1,
      "componentType": 5126,
      "count": 26144,
      "max": [
        5.619645118713379,
        0.31396353244781494,
        5.619644641876221
      ],
      "min": [
        -5.619645118713379,
        -0.006219855509698391,
        -5.619644641876221
      ],
      "type": "VEC3"
    },
    {
      "bufferView": 1,
      "byteOffset": 313728,
      "componentType": 5126,
      "count": 26144,
      "max": [
        0.9904764294624329,
        1.0,
        0.9904743432998657
      ],
      "min": [
        -0.9904764294624329,
        -1.0,
        -0.9904743432998657
      ],
      "type": "VEC3"
    },
    {
      "bufferView": 0,
      "componentType": 5125,
      "count": 37152,
      "type": "SCALAR"
    },
    {
      "bufferView": 1,
      "byteOffset": 627456,
      "componentType": 5126,
      "count": 4122,
      "max": [
        5.182113170623779,
        1.0157002210617065,
        5.057295799255371
      ],
      "min": [
        -5.182113170623779,
        -0.03997008875012398,
        -5.057295799255371
      ],
      "type": "VEC3"
    },
    {
      "bufferView": 1,
      "byteOffset": 676920,
      "componentType": 5126,
      "count": 4122,
      "max": [
        0.9953762888908386,
        0.9833534955978394,
        0.9978834390640259
      ],
      "min": [
        -0.9930693507194519,
        -1.0,
        -0.9970682263374329
      ],
      "type": "VEC3"
    },
    {
      "bufferView": 0,
      "byteOffset": 148608,
      "componentType": 5125,
      "count": 11070,
      "type": "SCALAR"
    },
    {
      "bufferView": 1,
      "byteOffset": 726384,
      "componentType": 5126,
      "count": 3240,
      "max": [
        5.410287857055664,
        1.5491886138916016,
        5.343164443969727
      ],
      "min": [
        -5.410287857055664,
        -0.03997008875012398,
        -5.343164443969727
      ],
      "type": "VEC3"
    },
    {
      "bufferView": 1,
      "byteOffset": 765264,
      "componentType": 5126,
      "count": 3240,
      "max": [
        0.9978295564651489,
        0.9976968765258789,
        0.9996105432510376
      ],
      "min": [
        -0.9983881115913391,
        -0.9989438652992249,
        -0.9996105432510376
      ],
      "type": "VEC3"
    },
    {
      "bufferView": 0,
      "byteOffset": 192888,
      "componentType": 5125,
      "count": 15552,
      "type": "SCALAR"
    },
    {
      "bufferView": 1,
      "byteOffset": 804144,
      "componentType": 5126,
      "count": 342,
      "max": [
        4.853360652923584,
        0.20300327241420746,
        4.9089765548706055
      ],
      "min": [
        -4.853360652923584,
        -0.03997008875012398,
        -4.9089765548706055
      ],
      "type": "VEC3"
    },
    {
      "bufferView": 1,
      "byteOffset": 808248,
      "componentType": 5126,
      "count": 342,
      "max": [
        0.9972730875015259,
        0.9141656160354614,
        0.9966062903404236
      ],
      "min": [
        -0.9972730875015259,
        -1.0,
        -0.9966062903404236
      ],
      "type": "VEC3"
    },
    {
      "bufferView": 0,
      "byteOffset": 255096,
      "componentType": 5125,
      "count": 1674,
      "type": "SCALAR"
    },
    {
      "bufferView": 1,
      "byteOffset": 812352,
      "componentType": 5126,
      "count": 344,
      "max": [
        1.3523437976837158,
        0.22959302365779877,
        1.305694580078125
      ],
      "min": [
        -1.3523437976837158,
        -0.003978855907917023,
        -1.305694580078125
      ],
      "type": "VEC3"
    },
    {
      "bufferView": 1,
      "byteOffset": 816480,
      "componentType": 5126,
      "count": 344,
      "max": [
        0.7071090936660767,
        1.0,
        0.7071085572242737
      ],
      "min": [
        -0.7071090936660767,
        -1.0,
        -0.7071085572242737
      ],
      "type": "VEC3"
    },
    {
      "bufferView": 0,
      "byteOffset": 261792,
      "componentType": 5125,
      "count": 528,
      "type": "SCALAR"
    },
    {
      "bufferView": 1,
      "byteOffset": 820608,
      "componentType": 5126,
      "count": 3444,
      "max": [
        1.6817004680633545,
        1.3507254123687744,
        1.7759125232696533
      ],
      "min": [
        -1.6817004680633545,
        0.0,
        -1.7759125232696533
      ],
      "type": "VEC3"
    },
    {
      "bufferView": 1,
      "byteOffset": 861936,
      "componentType": 5126,
      "count": 3444,
      "max": [
        1.0,
        1.0,
        1.0
      ],
      "min": [
        -1.0,
        -1.0,
        -1.0
      ],
      "type": "VEC3"
    },
    {
      "bufferView": 0,
      "byteOffset": 263904,
      "componentType": 5125,
      "count": 14208,
      "type": "SCALAR"
    },
    {
      "bufferView": 1,
      "byteOffset": 903264,
      "componentType": 5126,
      "count": 272,
      "max": [
        1.6705197095870972,
        1.1888573169708252,
        1.764731764793396
      ],
      "min": [
        -1.6705197095870972,
        1.15824294090271,
        -1.764731764793396
      ],
      "type": "VEC3"
    },
    {
      "bufferView": 1,
      "byteOffset": 906528,
      "componentType": 5126,
      "count": 272,
      "max": [
        0.9612240195274353,
        -0.2757689952850342,
        0.9612240195274353
      ],
      "min": [
        -0.9612240195274353,
        -1.0,
        -0.9612240195274353
      ],
      "type": "VEC3"
    },
    {
      "bufferView": 0,
      "byteOffset": 320736,
      "componentType": 5125,
      "count": 1152,
      "type": "SCALAR"
    },
    {
      "bufferView": 1,
      "byteOffset": 909792,
      "componentType": 5126,
      "count": 422,
      "max": [
        5.682614803314209,
        0.023194849491119385,
        5.682614803314209
      ],
      "min": [
        -5.682614803314209,
        -2.2013267653164803e-08,
        -5.682614803314209
      ],
      "type": "VEC3"
    },
    {
      "bufferView": 1,
      "byteOffset": 914856,
      "componentType": 5126,
      "count": 422,
      "max": [
        1.0,
        1.0,
        1.0
      ],
      "min": [
        -1.0,
        -1.0,
        -1.0
      ],
      "type": "VEC3"
    },
    {
      "bufferView": 0,
      "byteOffset": 325344,
      "componentType": 5125,
      "count": 768,
      "type": "SCALAR"
    },
    {
      "bufferView": 1,
      "byteOffset": 919920,
      "componentType": 5126,
      "count": 4,
      "max": [
        5.301612854003906,
        0.0,
        5.301612854003906
      ],
      "min": [
        -5.301612854003906,
        0.0,
        -5.301612854003906
      ],
      "type": "VEC3"
    },
    {
      "bufferView": 1,
      "byteOffset": 919968,
      "componentType": 5126,
      "count": 4,
      "max": [
        0.0,
        1.0,
        -0.0
      ],
      "min": [
        0.0,
        1.0,
        -0.0
      ],
      "type": "VEC3"
    },
    {
      "bufferView": 0,
      "byteOffset": 328416,
      "componentType": 5125,
      "count": 6,
      "type": "SCALAR"
    }
  ],
  "asset": {
    "extras": {
      "author": "xenera (https://sketchfab.com/xenera)",
      "license": "CC-BY-NC-ND-4.0 (http://creativecommons.org/licenses/by-nc-nd/4.0/)",
      "source": "https://sketchfab.com/3d-models/town-nature-park-88929f32447241d7b7183c8e8de2ae94",
      "title": "town_nature-park"
    },
    "generator": "Sketchfab-11.54.0",
    "version": "2.0"
  },
  "bufferViews": [
    {
      "buffer": 0,
      "byteLength": 328440,
      "name": "floatBufferViews",
      "target": 34963
    },
    {
      "buffer": 0,
      "byteLength": 920016,
      "byteOffset": 328440,
      "byteStride": 12,
      "name": "floatBufferViews",
      "target": 34962
    }
  ],
  "buffers": [
    {
      "byteLength": 1248456,
      "uri": "nature.bin"
    }
  ],
  "materials": [
    {
      "doubleSided": true,
      "name": "park_fence",
      "pbrMetallicRoughness": {
        "baseColorFactor": [
          0.00489232,
          0.00489232,
          0.00489232,
          1.0
        ],
        "metallicFactor": 0.0,
        "roughnessFactor": 0.2
      }
    },
    {
      "doubleSided": true,
      "name": "tree_brown.001",
      "pbrMetallicRoughness": {
        "baseColorFactor": [
          0.132854,
          0.065834,
          0.04622,
          1.0
        ],
        "metallicFactor": 0.0
      }
    },
    {
      "doubleSided": true,
      "name": "tree_green.001",
      "pbrMetallicRoughness": {
        "baseColorFactor": [
          0.144832,
          0.152315,
          0.070464,
          1.0
        ],
        "metallicFactor": 0.0
      }
    },
    {
      "doubleSided": true,
      "name": "tree_rock.001",
      "pbrMetallicRoughness": {
        "baseColorFactor": [
          1.0,
          0.723849,
          0.540594,
          1.0
        ],
        "metallicFactor": 0.0
      }
    },
    {
      "doubleSided": true,
      "name": "park_bench",
      "pbrMetallicRoughness": {
        "baseColorFactor": [
          0.592563,
          0.269663,
          0.111269,
          1.0
        ],
        "metallicFactor": 0.0,
        "roughnessFactor": 0.0
      }
    },
    {
      "doubleSided": true,
      "name": "street_lamp_black.001",
      "pbrMetallicRoughness": {
        "baseColorFactor": [
          0.0188415,
          0.0188415,
          0.0188415,
          1.0
        ],
        "metallicFactor": 0.0,
        "roughnessFactor": 0.5
      }
    },
    {
      "doubleSided": true,
      "emissiveFactor": [
        0.8,
        0.572823,
        0.285029
      ],
      "name": "lamp_lights.001"
    },
    {
      "doubleSided": true,
      "name": "park_path",
      "pbrMetallicRoughness": {
        "baseColorFactor": [
          0.147306,
          0.116406,
          0.053963,
          1.0
        ],
        "metallicFactor": 0.0
      }
    },
    {
      "doubleSided": true,
      "name": "park_grass",
      "pbrMetallicRoughness": {
        "baseColorFactor": [
          0.185596,
          0.214007,
          0.0469513,
          1.0
        ],
        "metallicFactor": 0.0,
        "roughnessFactor": 0.8
      }
    }
  ],
  "meshes": [
    {
      "name": "Object_0",
      "primitives": [
        {
          "attributes": {
            "NORMAL": 1,
            "POSITION": 0
          },
          "indices": 2,
          "material": 0,
          "mode": 4
        }
      ]
    },
    {
      "name": "Object_1",
      "primitives": [
        {
          "attributes": {
            "NORMAL": 4,
            "POSITION": 3
          },
          "indices": 5,
          "material": 1,
          "mode": 4
        }
      ]
    },
    {
      "name": "Object_2",
      "primitives": [
        {
          "attributes": {
            "NORMAL": 7,
            "POSITION": 6
          },
          "indices": 8,
          "material": 2,
          "mode": 4
        }
      ]
    },
    {
      "name": "Object_3",
      "primitives": [
        {
          "attributes": {
            "NORMAL": 10,
            "POSITION": 9
          },
          "indices": 11,
          "material": 3,
          "mode": 4
        }
      ]
    },
    {
      "name": "Object_4",
      "primitives": [
        {
          "attributes": {
            "NORMAL": 13,
            "POSITION": 12
          },
          "indices": 14,
          "material": 4,
          "mode": 4
        }
      ]
    },
    {
      "name": "Object_5",
      "primitives": [
        {
          "attributes": {
            "NORMAL": 16,
            "POSITION": 15
          },
          "indices": 17,
          "material": 5,
          "mode": 4
        }
      ]
    },
    {
      "name": "Object_6",
      "primitives": [
        {
          "attributes": {
            "NORMAL": 19,
            "POSITION": 18
          },
          "indices": 20,
          "material": 6,
          "mode": 4
        }
      ]
    },
    {
      "name": "Object_7",
      "primitives": [
        {
          "attributes": {
            "NORMAL": 22,
            "POSITION": 21
          },
          "indices": 23,
          "material": 7,
          "mode": 4
        }
      ]
    },
    {
      "name": "Object_8",
      "primitives": [
        {
          "attributes": {
            "NORMAL": 25,
            "POSITION": 24
          },
          "indices": 26,
          "material": 8,
          "mode": 4
        }
      ]
    }
  ],
  "nodes": [
    {
      "children": [
        1
      ],
      "matrix": [
        1.0,
        0.0,
        0.0,
        0.0,
        0.0,
        2.220446049250313e-16,
        -1.0,
        0.0,
        0.0,
        1.0,
        2.220446049250313e-16,
        0.0,
        0.0,
        0.0,
        0.0,
        1.0
      ],
      "name": "Sketchfab_model"
    },
    {
      "children": [
        2
      ],
      "name": "root"
    },
    {
      "children": [
        3
      ],
      "matrix": [
        1.0,
        0.0,
        0.0,
        0.0,
        0.0,
        2.220446049250313e-16,
        1.0,
        0.0,
        0.0,
        -1.0,
        2.220446049250313e-16,
        0.0,
        0.0,
        0.0,
        0.0,
        1.0
      ],
      "name": "GLTF_SceneRootNode"
    },
    {
      "children": [
        4,
        5,
        6,
        7,
        8,
        9,
        10,
        11,
        12
      ],
      "name": "park_0"
    },
    {
      "mesh": 0,
      "name": "Object_4"
    },
    {
      "mesh": 1,
      "name": "Object_5"
    },
    {
      "mesh": 2,
      "name": "Object_6"
    },
    {
      "mesh": 3,
      "name": "Object_7"
    },
    {
      "mesh": 4,
      "name": "Object_8"
    },
    {
      "mesh": 5,
      "name": "Object_9"
    },
    {
      "mesh": 6,
      "name": "Object_10"
    },
    {
      "mesh": 7,
      "name": "Object_11"
    },
    {
      "mesh": 8,
      "name": "Object_12"
    }
  ],
  "scene": 0,
  "scenes": [
    {
      "name": "Sketchfab_Scene",
      "nodes": [
        0
      ]
    }
  ]
}
