{
  "accessors": [
    {
      "bufferView": 1,
      "componentType": 5126,
      "count": 207,
      "max": [
        0.48406535387039185,
        1.0157002210617065,
        0.27998435497283936
      ],
      "min": [
        -0.39899933338165283,
        -0.039970025420188904,
        -0.2627663016319275
      ],
      "type": "VEC3"
    },
    {
      "bufferView": 1,
      "byteOffset": 2484,
      "componentType": 5126,
      "count": 207,
      "max": [
        0.9925218820571899,
        0.98782879114151,
        0.9994126558303833
      ],
      "min": [
        -0.9807043671607971,
        -0.9912165403366089,
        -0.9994556903839111
      ],
      "type": "VEC3"
    },
    {
      "bufferView": 0,
      "componentType": 5125,
      "count": 1230,
      "type": "SCALAR"
    },
    {
      "bufferView": 1,
      "byteOffset": 4968,
      "componentType": 5126,
      "count": 298,
      "max": [
        0.6796544790267944,
        1.5491886138916016,
        0.4037438929080963
      ],
      "min": [
        -0.6550117135047913,
        -0.039970025420188904,
        -0.532784104347229
      ],
      "type": "VEC3"
    },
    {
      "bufferView": 1,
      "byteOffset": 8544,
      "componentType": 5126,
      "count": 298,
      "max": [
        0.9827896952629089,
        0.9976968765258789,
        0.9966056942939758
      ],
      "min": [
        -0.9983881115913391,
        -0.9971591234207153,
        -0.9969448447227478
      ],
      "type": "VEC3"
    },
    {
      "bufferView": 0,
      "byteOffset": 4920,
      "componentType": 5125,
      "count": 1728,
      "type": "SCALAR"
    },
    {
      "bufferView": 1,
      "byteOffset": 12120,
      "componentType": 5126,
      "count": 33,
      "max": [
        0.17371688783168793,
        0.20300327241420746,
        0.19746136665344238
      ],
      "min": [
        -0.09515748172998428,
        -0.039970025420188904,
        -0.12396509945392609
      ],
      "type": "VEC3"
    },
    {
      "bufferView": 1,
      "byteOffset": 12516,
      "componentType": 5126,
      "count": 33,
      "max": [
        0.9867925047874451,
        0.9141612648963928,
        0.955180287361145
      ],
      "min": [
        -0.9816791415214539,
        -1.0,
        -0.9267688989639282
      ],
      "type": "VEC3"
    },
    {
      "bufferView": 0,
      "byteOffset": 11832,
      "componentType": 5125,
      "count": 186,
      "type": "SCALAR"
    }
  ],
  "asset": {
    "extras": {
      "author": "xenera (https://sketchfab.com/xenera)",
      "license": "CC-BY-NC-ND-4.0 (http://creativecommons.org/licenses/by-nc-nd/4.0/)",
      "source": "https://sketchfab.com/3d-models/town-nature-tree-296489e09dea46b58eb729996cecc3de",
      "title": "town_nature-tree"
    },
    "generator": "Sketchfab-11.54.0",
    "version": "2.0"
  },
  "bufferViews": [
    {
      "buffer": 0,
      "byteLength": 12576,
      "name": "floatBufferViews",
      "target": 34963
    },
    {
      "buffer": 0,
      "byteLength": 12912,
      "byteOffset": 12576,
      "byteStride": 12,
      "name": "floatBufferViews",
      "target": 34962
    }
  ],
  "buffers": [
    {
      "byteLength": 25488,
      "uri": "tree.bin"
    }
  ],
  "materials": [
    {
      "doubleSided": true,
      "name": "tree_brown",
      "pbrMetallicRoughness": {
        "baseColorFactor": [
          0.132854,
          0.065834,
          0.04622,
          1.0
        ],
        "metallicFactor": 0.0,
        "roughnessFactor": 0.5
      }
    },
    {
      "doubleSided": true,
      "name": "tree_green",
      "pbrMetallicRoughness": {
        "baseColorFactor": [
          0.144832,
          0.152315,
          0.070464,
          1.0
        ],
        "metallicFactor": 0.0,
        "roughnessFactor": 0.8
      }
    },
    {
      "doubleSided": true,
      "name": "tree_rock",
      "pbrMetallicRoughness": {
        "baseColorFactor": [
          1.0,
          0.723849,
          0.540594,
          1.0
        ],
        "metallicFactor": 0.0,
        "roughnessFactor": 0.8
      }
    }
  ],
  "meshes": [
    {
      "name": "Object_0",
      "primitives": [
        {
          "attributes": {
            "NORMAL": 1,
            "POSITION": 0
          },
          "indices": 2,
          "material": 0,
          "mode": 4
        }
      ]
    },
    {
      "name": "Object_1",
      "primitives": [
        {
          "attributes": {
            "NORMAL": 4,
            "POSITION": 3
          },
          "indices": 5,
          "material": 1,
          "mode": 4
        }
      ]
    },
    {
      "name": "Object_2",
      "primitives": [
        {
          "attributes": {
            "NORMAL": 7,
            "POSITION": 6
          },
          "indices": 8,
          "material": 2,
          "mode": 4
        }
      ]
    }
  ],
  "nodes": [
    {
      "children": [
        1
      ],
      "matrix": [
        1.0,
        0.0,
        0.0,
        0.0,
        0.0,
        2.220446049250313e-16,
        -1.0,
        0.0,
        0.0,
        1.0,
        2.220446049250313e-16,
        0.0,
        0.0,
        0.0,
        0.0,
        1.0
      ],
      "name": "Sketchfab_model"
    },
    {
      "children": [
        2
      ],
      "name": "root"
    },
    {
      "children": [
        3
      ],
      "matrix": [
        1.0,
        0.0,
        0.0,
        0.0,
        0.0,
        2.220446049250313e-16,
        1.0,
        0.0,
        0.0,
        -1.0,
        2.220446049250313e-16,
        0.0,
        0.0,
        0.0,
        0.0,
        1.0
      ],
      "name": "GLTF_SceneRootNode"
    },
    {
      "children": [
        4,
        5,
        6
      ],
      "name": "tree_0"
    },
    {
      "mesh": 0,
      "name": "Object_4"
    },
    {
      "mesh": 1,
      "name": "Object_5"
    },
    {
      "mesh": 2,
      "name": "Object_6"
    }
  ],
  "scene": 0,
  "scenes": [
    {
      "name": "Sketchfab_Scene",
      "nodes": [
        0
      ]
    }
  ]
}
