{
  "accessors": [
    {
      "bufferView": 1,
      "componentType": 5126,
      "count": 2099,
      "max": [
        2.323808431625366,
        5.994462013244629,
        4.480459213256836
      ],
      "min": [
        -11.546183586120605,
        -0.07684767246246338,
        -4.313301086425781
      ],
      "type": "VEC3"
    },
    {
      "bufferView": 1,
      "byteOffset": 25188,
      "componentType": 5126,
      "count": 2099,
      "max": [
        1.0,
        1.0,
        1.0
      ],
      "min": [
        -1.0,
        -1.0,
        -1.0
      ],
      "type": "VEC3"
    },
    {
      "bufferView": 0,
      "componentType": 5125,
      "count": 5184,
      "type": "SCALAR"
    },
    {
      "bufferView": 1,
      "byteOffset": 50376,
      "componentType": 5126,
      "count": 143,
      "max": [
        2.257692813873291,
        3.4118435382843018,
        4.313301086425781
      ],
      "min": [
        -11.383003234863281,
        -0.0037572276778519154,
        -4.230834007263184
      ],
      "type": "VEC3"
    },
    {
      "bufferView": 1,
      "byteOffset": 52092,
      "componentType": 5126,
      "count": 143,
      "max": [
        1.0,
        0.16818867623806,
        1.0
      ],
      "min": [
        -1.0,
        -0.16818867623806,
        -1.0
      ],
      "type": "VEC3"
    },
    {
      "bufferView": 0,
      "byteOffset": 20736,
      "componentType": 5125,
      "count": 246,
      "type": "SCALAR"
    },
    {
      "bufferView": 1,
      "byteOffset": 53808,
      "componentType": 5126,
      "count": 146,
      "max": [
        2.198789358139038,
        5.994462013244629,
        4.313301086425781
      ],
      "min": [
        -11.411731719970703,
        2.7378439903259277,
        -4.286674976348877
      ],
      "type": "VEC3"
    },
    {
      "bufferView": 1,
      "byteOffset": 55560,
      "componentType": 5126,
      "count": 146,
      "max": [
        1.0,
        0.014527050778269768,
        1.0
      ],
      "min": [
        -1.0,
        0.0,
        -1.0
      ],
      "type": "VEC3"
    },
    {
      "bufferView": 0,
      "byteOffset": 21720,
      "componentType": 5125,
      "count": 318,
      "type": "SCALAR"
    },
    {
      "bufferView": 1,
      "byteOffset": 57312,
      "componentType": 5126,
      "count": 106,
      "max": [
        2.323808431625366,
        3.446883201599121,
        4.480459213256836
      ],
      "min": [
        -2.1566505432128906,
        0.6901215314865112,
        -4.313301086425781
      ],
      "type": "VEC3"
    },
    {
      "bufferView": 1,
      "byteOffset": 58584,
      "componentType": 5126,
      "count": 106,
      "max": [
        1.0,
        0.3315858840942383,
        1.0
      ],
      "min": [
        -1.0,
        -0.3315858840942383,
        -1.0
      ],
      "type": "VEC3"
    },
    {
      "bufferView": 0,
      "byteOffset": 22992,
      "componentType": 5125,
      "count": 276,
      "type": "SCALAR"
    },
    {
      "bufferView": 1,
      "byteOffset": 59856,
      "componentType": 5126,
      "count": 6,
      "max": [
        2.1566505432128906,
        2.51131010055542,
        1.5184040069580078
      ],
      "min": [
        2.1566505432128906,
        1.7944765090942383,
        0.7290233373641968
      ],
      "type": "VEC3"
    },
    {
      "bufferView": 1,
      "byteOffset": 59928,
      "componentType": 5126,
      "count": 6,
      "max": [
        1.0,
        0.0,
        -0.0
      ],
      "min": [
        1.0,
        0.0,
        -0.0
      ],
      "type": "VEC3"
    },
    {
      "bufferView": 0,
      "byteOffset": 24096,
      "componentType": 5125,
      "count": 12,
      "type": "SCALAR"
    },
    {
      "bufferView": 1,
      "byteOffset": 60000,
      "componentType": 5126,
      "count": 93,
      "max": [
        2.086533784866333,
        4.117241859436035,
        4.243184566497803
      ],
      "min": [
        -11.435837745666504,
        4.113613605499268,
        -4.243184566497803
      ],
      "type": "VEC3"
    },
    {
      "bufferView": 1,
      "byteOffset": 61116,
      "componentType": 5126,
      "count": 93,
      "max": [
        0.0,
        1.0,
        -0.0
      ],
      "min": [
        0.0,
        1.0,
        -0.0
      ],
      "type": "VEC3"
    },
    {
      "bufferView": 0,
      "byteOffset": 24144,
      "componentType": 5125,
      "count": 345,
      "type": "SCALAR"
    },
    {
      "bufferView": 1,
      "byteOffset": 62232,
      "componentType": 5126,
      "count": 254,
      "max": [
        -4.221749782562256,
        4.119327545166016,
        2.142319917678833
      ],
      "min": [
        -11.435837745666504,
        4.113613605499268,
        -0.0
      ],
      "type": "VEC3"
    },
    {
      "bufferView": 1,
      "byteOffset": 65280,
      "componentType": 5126,
      "count": 254,
      "max": [
        4.448812615009956e-05,
        1.0,
        -0.0
      ],
      "min": [
        -4.187560989521444e-05,
        1.0,
        -0.0
      ],
      "type": "VEC3"
    },
    {
      "bufferView": 0,
      "byteOffset": 25524,
      "componentType": 5125,
      "count": 540,
      "type": "SCALAR"
    }
  ],
  "asset": {
    "extras": {
      "author": "xenera (https://sketchfab.com/xenera)",
      "license": "CC-BY-NC-ND-4.0 (http://creativecommons.org/licenses/by-nc-nd/4.0/)",
      "source": "https://sketchfab.com/3d-models/town-building-barco-2-c9f0f480dc7a40bf8c6214fd9c091c3d",
      "title": "town_building-barco-2"
    },
    "generator": "Sketchfab-11.54.0",
    "version": "2.0"
  },
  "bufferViews": [
    {
      "buffer": 0,
      "byteLength": 27684,
      "name": "floatBufferViews",
      "target": 34963
    },
    {
      "buffer": 0,
      "byteLength": 68328,
      "byteOffset": 27684,
      "byteStride": 12,
      "name": "floatBufferViews",
      "target": 34962
    }
  ],
  "buffers": [
    {
      "byteLength": 96012,
      "uri": "barco.bin"
    }
  ],
  "materials": [
    {
      "doubleSided": true,
      "name": "building_white.002",
      "pbrMetallicRoughness": {
        "baseColorFactor": [
          0.735602,
          0.735602,
          0.735602,
          1.0
        ],
        "metallicFactor": 0.0,
        "roughnessFactor": 0.8
      }
    },
    {
      "doubleSided": true,
      "name": "windows_building.001",
      "pbrMetallicRoughness": {
        "baseColorFactor": [
          0.138432,
          0.23074,
          0.327778,
          1.0
        ],
        "metallicFactor": 0.0,
        "roughnessFactor": 0.0
      }
    },
    {
      "doubleSided": true,
      "name": "building_sea.001",
      "pbrMetallicRoughness": {
        "baseColorFactor": [
          0.0570619,
          0.0677639,
          0.106516,
          1.0
        ],
        "metallicFactor": 0.0,
        "roughnessFactor": 0.8
      }
    },
    {
      "doubleSided": true,
      "name": "building_black.005",
      "pbrMetallicRoughness": {
        "baseColorFactor": [
          0.0121286,
          0.013958,
          0.0203707,
          1.0
        ],
        "metallicFactor": 0.0,
        "roughnessFactor": 0.2
      }
    },
    {
      "doubleSided": true,
      "name": "building_red.002",
      "pbrMetallicRoughness": {
        "baseColorFactor": [
          0.214004,
          0.0797864,
          0.0765124,
          1.0
        ],
        "metallicFactor": 0.0,
        "roughnessFactor": 0.8
      }
    },
    {
      "doubleSided": true,
      "name": "building_green.004",
      "pbrMetallicRoughness": {
        "baseColorFactor": [
          0.142586,
          0.214004,
          0.102096,
          1.0
        ],
        "metallicFactor": 0.0,
        "roughnessFactor": 0.8
      }
    },
    {
      "doubleSided": true,
      "name": "building_white2.004",
      "pbrMetallicRoughness": {
        "baseColorFactor": [
          0.827494,
          0.827494,
          0.827494,
          1.0
        ],
        "metallicFactor": 0.0,
        "roughnessFactor": 0.8
      }
    }
  ],
  "meshes": [
    {
      "name": "Object_0",
      "primitives": [
        {
          "attributes": {
            "NORMAL": 1,
            "POSITION": 0
          },
          "indices": 2,
          "material": 0,
          "mode": 4
        }
      ]
    },
    {
      "name": "Object_1",
      "primitives": [
        {
          "attributes": {
            "NORMAL": 4,
            "POSITION": 3
          },
          "indices": 5,
          "material": 1,
          "mode": 4
        }
      ]
    },
    {
      "name": "Object_2",
      "primitives": [
        {
          "attributes": {
            "NORMAL": 7,
            "POSITION": 6
          },
          "indices": 8,
          "material": 2,
          "mode": 4
        }
      ]
    },
    {
      "name": "Object_3",
      "primitives": [
        {
          "attributes": {
            "NORMAL": 10,
            "POSITION": 9
          },
          "indices": 11,
          "material": 3,
          "mode": 4
        }
      ]
    },
    {
      "name": "Object_4",
      "primitives": [
        {
          "attributes": {
            "NORMAL": 13,
            "POSITION": 12
          },
          "indices": 14,
          "material": 4,
          "mode": 4
        }
      ]
    },
    {
      "name": "Object_5",
      "primitives": [
        {
          "attributes": {
            "NORMAL": 16,
            "POSITION": 15
          },
          "indices": 17,
          "material": 5,
          "mode": 4
        }
      ]
    },
    {
      "name": "Object_6",
      "primitives": [
        {
          "attributes": {
            "NORMAL": 19,
            "POSITION": 18
          },
          "indices": 20,
          "material": 6,
          "mode": 4
        }
      ]
    }
  ],
  "nodes": [
    {
      "children": [
        1
      ],
      "matrix": [
        1.0,
        0.0,
        0.0,
        0.0,
        0.0,
        2.220446049250313e-16,
        -1.0,
        0.0,
        0.0,
        1.0,
        2.220446049250313e-16,
        0.0,
        0.0,
        0.0,
        0.0,
        1.0
      ],
      "name": "Sketchfab_model"
    },
    {
      "children": [
        2
      ],
      "name": "root"
    },
    {
      "children": [
        3
      ],
      "matrix": [
        1.0,
        0.0,
        0.0,
        0.0,
        0.0,
        2.220446049250313e-16,
        1.0,
        0.0,
        0.0,
        -1.0,
        2.220446049250313e-16,
        0.0,
        0.0,
        0.0,
        0.0,
        1.0
      ],
      "name": "GLTF_SceneRootNode"
    },
    {
      "children": [
        4,
        5,
        6,
        7,
        8,
        9,
        10
      ],
      "name": "parco_building_0"
    },
    {
      "mesh": 0,
      "name": "Object_4"
    },
    {
      "mesh": 1,
      "name": "Object_5"
    },
    {
      "mesh": 2,
      "name": "Object_6"
    },
    {
      "mesh": 3,
      "name": "Object_7"
    },
    {
      "mesh": 4,
      "name": "Object_8"
    },
    {
      "mesh": 5,
      "name": "Object_9"
    },
    {
      "mesh": 6,
      "name": "Object_10"
    }
  ],
  "scene": 0,
  "scenes": [
    {
      "name": "Sketchfab_Scene",
      "nodes": [
        0
      ]
    }
  ]
}
