{
  "accessors": [
    {
      "bufferView": 1,
      "componentType": 5126,
      "count": 3722,
      "max": [
        13.744474411010742,
        35.76094055175781,
        11.502548217773438
      ],
      "min": [
        -7.841372489929199,
        0.7141468524932861,
        -11.502544403076172
      ],
      "type": "VEC3"
    },
    {
      "bufferView": 1,
      "byteOffset": 44664,
      "componentType": 5126,
      "count": 3722,
      "max": [
        1.0,
        1.0,
        1.0
      ],
      "min": [
        -1.0,
        -1.0,
        -1.0
      ],
      "type": "VEC3"
    },
    {
      "bufferView": 0,
      "componentType": 5125,
      "count": 14442,
      "type": "SCALAR"
    },
    {
      "bufferView": 1,
      "byteOffset": 89328,
      "componentType": 5126,
      "count": 2244,
      "max": [
        11.40481948852539,
        32.850650787353516,
        10.020716667175293
      ],
      "min": [
        -3.787890911102295,
        6.936026573181152,
        -10.16968059539795
      ],
      "type": "VEC3"
    },
    {
      "bufferView": 1,
      "byteOffset": 116256,
      "componentType": 5126,
      "count": 2244,
      "max": [
        1.0,
        0.0,
        1.0
      ],
      "min": [
        -1.0,
        -1.0,
        -1.0
      ],
      "type": "VEC3"
    },
    {
      "bufferView": 0,
      "byteOffset": 57768,
      "componentType": 5125,
      "count": 3462,
      "type": "SCALAR"
    },
    {
      "bufferView": 1,
      "byteOffset": 143184,
      "componentType": 5126,
      "count": 406,
      "max": [
        13.744474411010742,
        7.498542785644531,
        11.502548217773438
      ],
      "min": [
        -7.841372489929199,
        0.0,
        -11.502544403076172
      ],
      "type": "VEC3"
    },
    {
      "bufferView": 1,
      "byteOffset": 148056,
      "componentType": 5126,
      "count": 406,
      "max": [
        0.999725341796875,
        1.0,
        0.9901137351989746
      ],
      "min": [
        -0.9989503026008606,
        -1.0,
        -1.0
      ],
      "type": "VEC3"
    },
    {
      "bufferView": 0,
      "byteOffset": 71616,
      "componentType": 5125,
      "count": 1236,
      "type": "SCALAR"
    }
  ],
  "asset": {
    "extras": {
      "author": "xenera (https://sketchfab.com/xenera)",
      "license": "CC-BY-NC-ND-4.0 (http://creativecommons.org/licenses/by-nc-nd/4.0/)",
      "source": "https://sketchfab.com/3d-models/town-building-hankyu-814359e5679e4f5bbdee5bf5e0009318",
      "title": "town_building-hankyu"
    },
    "generator": "Sketchfab-11.54.0",
    "version": "2.0"
  },
  "bufferViews": [
    {
      "buffer": 0,
      "byteLength": 76560,
      "name": "floatBufferViews",
      "target": 34963
    },
    {
      "buffer": 0,
      "byteLength": 152928,
      "byteOffset": 76560,
      "byteStride": 12,
      "name": "floatBufferViews",
      "target": 34962
    }
  ],
  "buffers": [
    {
      "byteLength": 229488,
      "uri": "building.bin"
    }
  ],
  "materials": [
    {
      "doubleSided": true,
      "name": "building_grey.001",
      "pbrMetallicRoughness": {
        "baseColorFactor": [
          0.195959,
          0.195959,
          0.195959,
          1.0
        ],
        "metallicFactor": 0.0,
        "roughnessFactor": 0.8
      }
    },
    {
      "doubleSided": true,
      "name": "building_green_shine",
      "pbrMetallicRoughness": {
        "baseColorFactor": [
          0.408166,
          0.447934,
          0.348164,
          1.0
        ],
        "metallicFactor": 0.0,
        "roughnessFactor": 0.0
      }
    },
    {
      "doubleSided": true,
      "name": "building_brown",
      "pbrMetallicRoughness": {
        "baseColorFactor": [
          0.0522046,
          0.0310733,
          0.0204214,
          1.0
        ],
        "metallicFactor": 0.0,
        "roughnessFactor": 0.2
      }
    }
  ],
  "meshes": [
    {
      "name": "Object_0",
      "primitives": [
        {
          "attributes": {
            "NORMAL": 1,
            "POSITION": 0
          },
          "indices": 2,
          "material": 0,
          "mode": 4
        }
      ]
    },
    {
      "name": "Object_1",
      "primitives": [
        {
          "attributes": {
            "NORMAL": 4,
            "POSITION": 3
          },
          "indices": 5,
          "material": 1,
          "mode": 4
        }
      ]
    },
    {
      "name": "Object_2",
      "primitives": [
        {
          "attributes": {
            "NORMAL": 7,
            "POSITION": 6
          },
          "indices": 8,
          "material": 2,
          "mode": 4
        }
      ]
    }
  ],
  "nodes": [
    {
      "children": [
        1
      ],
      "matrix": [
        1.0,
        0.0,
        0.0,
        0.0,
        0.0,
        2.220446049250313e-16,
        -1.0,
        0.0,
        0.0,
        1.0,
        2.220446049250313e-16,
        0.0,
        0.0,
        0.0,
        0.0,
        1.0
      ],
      "name": "Sketchfab_model"
    },
    {
      "children": [
        2
      ],
      "name": "root"
    },
    {
      "children": [
        3
      ],
      "matrix": [
        1.0,
        0.0,
        0.0,
        0.0,
        0.0,
        2.220446049250313e-16,
        1.0,
        0.0,
        0.0,
        -1.0,
        2.220446049250313e-16,
        0.0,
        0.0,
        0.0,
        0.0,
        1.0
      ],
      "name": "GLTF_SceneRootNode"
    },
    {
      "children": [
        4,
        5,
        6
      ],
      "name": "hankyu_0"
    },
    {
      "mesh": 0,
      "name": "Object_4"
    },
    {
      "mesh": 1,
      "name": "Object_5"
    },
    {
      "mesh": 2,
      "name": "Object_6"
    }
  ],
  "scene": 0,
  "scenes": [
    {
      "name": "Sketchfab_Scene",
      "nodes": [
        0
      ]
    }
  ]
}
