{
  "accessors": [
    {
      "bufferView": 1,
      "componentType": 5126,
      "count": 599,
      "max": [
        1.0,
        1.200763463973999,
        1.029130458831787
      ],
      "min": [
        -1.0300142765045166,
        -0.011434376239776611,
        -1.0300142765045166
      ],
      "type": "VEC3"
    },
    {
      "bufferView": 1,
      "byteOffset": 7188,
      "componentType": 5126,
      "count": 599,
      "max": [
        1.0,
        1.0,
        1.0
      ],
      "min": [
        -1.0,
        -1.0,
        -1.0
      ],
      "type": "VEC3"
    },
    {
      "bufferView": 0,
      "componentType": 5125,
      "count": 1332,
      "type": "SCALAR"
    },
    {
      "bufferView": 1,
      "byteOffset": 14376,
      "componentType": 5126,
      "count": 794,
      "max": [
        0.8309680223464966,
        0.7994229793548584,
        1.0
      ],
      "min": [
        -1.0,
        -0.011434376239776611,
        -0.8806161880493164
      ],
      "type": "VEC3"
    },
    {
      "bufferView": 1,
      "byteOffset": 23904,
      "componentType": 5126,
      "count": 794,
      "max": [
        1.0,
        1.0,
        1.0
      ],
      "min": [
        -1.0,
        -1.0,
        -0.9947507381439209
      ],
      "type": "VEC3"
    },
    {
      "bufferView": 0,
      "byteOffset": 5328,
      "componentType": 5125,
      "count": 1296,
      "type": "SCALAR"
    },
    {
      "bufferView": 1,
      "byteOffset": 33432,
      "componentType": 5126,
      "count": 60,
      "max": [
        0.33557409048080444,
        0.5823298692703247,
        0.9816057085990906
      ],
      "min": [
        -0.983156144618988,
        0.2133491039276123,
        0.3817286193370819
      ],
      "type": "VEC3"
    },
    {
      "bufferView": 1,
      "byteOffset": 34152,
      "componentType": 5126,
      "count": 60,
      "max": [
        1.0,
        2.701060282106482e-07,
        1.0
      ],
      "min": [
        0.0,
        -0.0,
        -2.3599321252731897e-07
      ],
      "type": "VEC3"
    },
    {
      "bufferView": 0,
      "byteOffset": 10512,
      "componentType": 5125,
      "count": 90,
      "type": "SCALAR"
    },
    {
      "bufferView": 1,
      "byteOffset": 34872,
      "componentType": 5126,
      "count": 20,
      "max": [
        0.5141763687133789,
        0.14142285287380219,
        0.07825183868408203
      ],
      "min": [
        0.33227109909057617,
        0.07750138640403748,
        -0.5580341815948486
      ],
      "type": "VEC3"
    },
    {
      "bufferView": 1,
      "byteOffset": 35112,
      "componentType": 5126,
      "count": 20,
      "max": [
        0.877221405506134,
        0.7553489804267883,
        0.7903243899345398
      ],
      "min": [
        -0.7585316300392151,
        0.45986753702163696,
        -0.7612428069114685
      ],
      "type": "VEC3"
    },
    {
      "bufferView": 0,
      "byteOffset": 10872,
      "componentType": 5125,
      "count": 36,
      "type": "SCALAR"
    },
    {
      "bufferView": 1,
      "byteOffset": 35352,
      "componentType": 5126,
      "count": 14,
      "max": [
        0.4920997619628906,
        0.08206655085086823,
        0.01658916473388672
      ],
      "min": [
        0.3715629577636719,
        -0.03240303695201874,
        -0.5345594882965088
      ],
      "type": "VEC3"
    },
    {
      "bufferView": 1,
      "byteOffset": 35520,
      "componentType": 5126,
      "count": 14,
      "max": [
        0.877221405506134,
        0.9356009364128113,
        0.8466607332229614
      ],
      "min": [
        -0.7585316300392151,
        0.45986753702163696,
        -0.7612428069114685
      ],
      "type": "VEC3"
    },
    {
      "bufferView": 0,
      "byteOffset": 11016,
      "componentType": 5125,
      "count": 48,
      "type": "SCALAR"
    },
    {
      "bufferView": 1,
      "byteOffset": 35688,
      "componentType": 5126,
      "count": 883,
      "max": [
        0.6960439682006836,
        0.7852763533592224,
        0.9629271626472473
      ],
      "min": [
        0.2972594201564789,
        -0.0002409815788269043,
        -0.4013218879699707
      ],
      "type": "VEC3"
    },
    {
      "bufferView": 1,
      "byteOffset": 46284,
      "componentType": 5126,
      "count": 883,
      "max": [
        1.0,
        1.0,
        1.0
      ],
      "min": [
        -1.0,
        -1.0,
        -1.0
      ],
      "type": "VEC3"
    },
    {
      "bufferView": 0,
      "byteOffset": 11208,
      "componentType": 5125,
      "count": 1422,
      "type": "SCALAR"
    },
    {
      "bufferView": 1,
      "byteOffset": 56880,
      "componentType": 5126,
      "count": 4,
      "max": [
        0.3373156487941742,
        0.221247136592865,
        -0.12402737140655518
      ],
      "min": [
        0.3373155891895294,
        0.015586495399475098,
        -0.38258427381515503
      ],
      "type": "VEC3"
    },
    {
      "bufferView": 1,
      "byteOffset": 56928,
      "componentType": 5126,
      "count": 4,
      "max": [
        1.0,
        1.4491018873741268e-07,
        -1.1526407917017423e-07
      ],
      "min": [
        1.0,
        1.4491018873741268e-07,
        -1.1526407917017423e-07
      ],
      "type": "VEC3"
    },
    {
      "bufferView": 0,
      "byteOffset": 16896,
      "componentType": 5125,
      "count": 6,
      "type": "SCALAR"
    }
  ],
  "asset": {
    "extras": {
      "author": "xenera (https://sketchfab.com/xenera)",
      "license": "CC-BY-NC-ND-4.0 (http://creativecommons.org/licenses/by-nc-nd/4.0/)",
      "source": "https://sketchfab.com/3d-models/town-building-cafe-776db963d6b04399b0d4ac63b698fbce",
      "title": "town_building-cafe"
    },
    "generator": "Sketchfab-11.54.0",
    "version": "2.0"
  },
  "bufferViews": [
    {
      "buffer": 0,
      "byteLength": 16920,
      "name": "floatBufferViews",
      "target": 34963
    },
    {
      "buffer": 0,
      "byteLength": 56976,
      "byteOffset": 16920,
      "byteStride": 12,
      "name": "floatBufferViews",
      "target": 34962
    }
  ],
  "buffers": [
    {
      "byteLength": 73896,
      "uri": "cafe.bin"
    }
  ],
  "materials": [
    {
      "doubleSided": true,
      "name": "building_blue_dark.002",
      "pbrMetallicRoughness": {
        "baseColorFactor": [
          0.0480011,
          0.0620545,
          0.0732194,
          1.0
        ],
        "metallicFactor": 0.0,
        "roughnessFactor": 0.8
      }
    },
    {
      "doubleSided": true,
      "name": "wood",
      "pbrMetallicRoughness": {
        "baseColorFactor": [
          0.310727,
          0.199797,
          0.115029,
          1.0
        ],
        "metallicFactor": 0.0,
        "roughnessFactor": 0.8
      }
    },
    {
      "doubleSided": true,
      "name": "windows_bus.002",
      "pbrMetallicRoughness": {
        "baseColorFactor": [
          0.638219,
          0.638219,
          0.638219,
          1.0
        ],
        "metallicFactor": 0.0,
        "roughnessFactor": 0.0
      }
    },
    {
      "doubleSided": true,
      "name": "flower_green",
      "pbrMetallicRoughness": {
        "baseColorFactor": [
          0.23173,
          0.295635,
          0.0558368,
          1.0
        ],
        "metallicFactor": 0.0,
        "roughnessFactor": 0.5
      }
    },
    {
      "doubleSided": true,
      "name": "flower_green2",
      "pbrMetallicRoughness": {
        "baseColorFactor": [
          0.0945084,
          0.119234,
          0.0249554,
          1.0
        ],
        "metallicFactor": 0.0,
        "roughnessFactor": 0.5
      }
    },
    {
      "doubleSided": true,
      "name": "building_white2",
      "pbrMetallicRoughness": {
        "baseColorFactor": [
          0.827494,
          0.827494,
          0.827494,
          1.0
        ],
        "metallicFactor": 0.0,
        "roughnessFactor": 0.8
      }
    },
    {
      "doubleSided": true,
      "name": "building_white.004",
      "pbrMetallicRoughness": {
        "baseColorFactor": [
          0.735602,
          0.735602,
          0.735602,
          1.0
        ],
        "metallicFactor": 0.0,
        "roughnessFactor": 0.8
      }
    }
  ],
  "meshes": [
    {
      "name": "Object_0",
      "primitives": [
        {
          "attributes": {
            "NORMAL": 1,
            "POSITION": 0
          },
          "indices": 2,
          "material": 0,
          "mode": 4
        }
      ]
    },
    {
      "name": "Object_1",
      "primitives": [
        {
          "attributes": {
            "NORMAL": 4,
            "POSITION": 3
          },
          "indices": 5,
          "material": 1,
          "mode": 4
        }
      ]
    },
    {
      "name": "Object_2",
      "primitives": [
        {
          "attributes": {
            "NORMAL": 7,
            "POSITION": 6
          },
          "indices": 8,
          "material": 2,
          "mode": 4
        }
      ]
    },
    {
      "name": "Object_3",
      "primitives": [
        {
          "attributes": {
            "NORMAL": 10,
            "POSITION": 9
          },
          "indices": 11,
          "material": 3,
          "mode": 4
        }
      ]
    },
    {
      "name": "Object_4",
      "primitives": [
        {
          "attributes": {
            "NORMAL": 13,
            "POSITION": 12
          },
          "indices": 14,
          "material": 4,
          "mode": 4
        }
      ]
    },
    {
      "name": "Object_5",
      "primitives": [
        {
          "attributes": {
            "NORMAL": 16,
            "POSITION": 15
          },
          "indices": 17,
          "material": 5,
          "mode": 4
        }
      ]
    },
    {
      "name": "Object_6",
      "primitives": [
        {
          "attributes": {
            "NORMAL": 19,
            "POSITION": 18
          },
          "indices": 20,
          "material": 6,
          "mode": 4
        }
      ]
    }
  ],
  "nodes": [
    {
      "children": [
        1
      ],
      "matrix": [
        1.0,
        0.0,
        0.0,
        0.0,
        0.0,
        2.220446049250313e-16,
        -1.0,
        0.0,
        0.0,
        1.0,
        2.220446049250313e-16,
        0.0,
        0.0,
        0.0,
        0.0,
        1.0
      ],
      "name": "Sketchfab_model"
    },
    {
      "children": [
        2
      ],
      "name": "root"
    },
    {
      "children": [
        3
      ],
      "matrix": [
        1.0,
        0.0,
        0.0,
        0.0,
        0.0,
        2.220446049250313e-16,
        1.0,
        0.0,
        0.0,
        -1.0,
        2.220446049250313e-16,
        0.0,
        0.0,
        0.0,
        0.0,
        1.0
      ],
      "name": "GLTF_SceneRootNode"
    },
    {
      "children": [
        4,
        5,
        6,
        7,
        8,
        9,
        10
      ],
      "name": "cafe_0"
    },
    {
      "mesh": 0,
      "name": "Object_4"
    },
    {
      "mesh": 1,
      "name": "Object_5"
    },
    {
      "mesh": 2,
      "name": "Object_6"
    },
    {
      "mesh": 3,
      "name": "Object_7"
    },
    {
      "mesh": 4,
      "name": "Object_8"
    },
    {
      "mesh": 5,
      "name": "Object_9"
    },
    {
      "mesh": 6,
      "name": "Object_10"
    }
  ],
  "scene": 0,
  "scenes": [
    {
      "name": "Sketchfab_Scene",
      "nodes": [
        0
      ]
    }
  ]
}
