{
  "accessors": [
    {
      "bufferView": 1,
      "componentType": 5126,
      "count": 189,
      "max": [
        1.096306562423706,
        1.4446396827697754,
        1.4556463956832886
      ],
      "min": [
        -1.096306562423706,
        0.5129663944244385,
        -1.4556463956832886
      ],
      "type": "VEC3"
    },
    {
      "bufferView": 1,
      "byteOffset": 2268,
      "componentType": 5126,
      "count": 189,
      "max": [
        1.0,
        4.440555826420566e-15,
        1.0
      ],
      "min": [
        -1.0,
        -0.9901586174964905,
        -1.0
      ],
      "type": "VEC3"
    },
    {
      "bufferView": 0,
      "componentType": 5125,
      "count": 414,
      "type": "SCALAR"
    },
    {
      "bufferView": 1,
      "byteOffset": 4536,
      "componentType": 5126,
      "count": 102,
      "max": [
        1.096306562423706,
        1.2161455154418945,
        1.4556463956832886
      ],
      "min": [
        -1.096306562423706,
        0.021319150924682617,
        -1.4556463956832886
      ],
      "type": "VEC3"
    },
    {
      "bufferView": 1,
      "byteOffset": 5760,
      "componentType": 5126,
      "count": 102,
      "max": [
        0.18444612622261047,
        0.9901589155197144,
        1.0
      ],
      "min": [
        -0.18444670736789703,
        0.0,
        -0.13994818925857544
      ],
      "type": "VEC3"
    },
    {
      "bufferView": 0,
      "byteOffset": 1656,
      "componentType": 5125,
      "count": 174,
      "type": "SCALAR"
    },
    {
      "bufferView": 1,
      "byteOffset": 6984,
      "componentType": 5126,
      "count": 202,
      "max": [
        1.0,
        1.4446396827697754,
        1.327773094177246
      ],
      "min": [
        -1.0,
        0.6759777069091797,
        -1.327773094177246
      ],
      "type": "VEC3"
    },
    {
      "bufferView": 1,
      "byteOffset": 9408,
      "componentType": 5126,
      "count": 202,
      "max": [
        1.0,
        1.0,
        1.0
      ],
      "min": [
        -1.0,
        -0.0,
        -1.0
      ],
      "type": "VEC3"
    },
    {
      "bufferView": 0,
      "byteOffset": 2352,
      "componentType": 5125,
      "count": 528,
      "type": "SCALAR"
    },
    {
      "bufferView": 1,
      "byteOffset": 11832,
      "componentType": 5126,
      "count": 40,
      "max": [
        1.0,
        0.47986090183258057,
        1.327773094177246
      ],
      "min": [
        -1.0,
        0.04211914539337158,
        -1.2689992189407349
      ],
      "type": "VEC3"
    },
    {
      "bufferView": 1,
      "byteOffset": 12312,
      "componentType": 5126,
      "count": 40,
      "max": [
        1.0,
        0.0,
        1.0
      ],
      "min": [
        -1.0,
        0.0,
        0.0
      ],
      "type": "VEC3"
    },
    {
      "bufferView": 0,
      "byteOffset": 4464,
      "componentType": 5125,
      "count": 60,
      "type": "SCALAR"
    },
    {
      "bufferView": 1,
      "byteOffset": 12792,
      "componentType": 5126,
      "count": 365,
      "max": [
        1.096306562423706,
        1.22633695602417,
        1.4807720184326172
      ],
      "min": [
        -1.096306562423706,
        0.006566166877746582,
        -1.4556463956832886
      ],
      "type": "VEC3"
    },
    {
      "bufferView": 1,
      "byteOffset": 17172,
      "componentType": 5126,
      "count": 365,
      "max": [
        1.0,
        1.0,
        1.0
      ],
      "min": [
        -1.0,
        -1.0,
        -1.0
      ],
      "type": "VEC3"
    },
    {
      "bufferView": 0,
      "byteOffset": 4704,
      "componentType": 5125,
      "count": 894,
      "type": "SCALAR"
    },
    {
      "bufferView": 1,
      "byteOffset": 21552,
      "componentType": 5126,
      "count": 56,
      "max": [
        1.096306562423706,
        0.6744962930679321,
        1.4556463956832886
      ],
      "min": [
        -1.096306562423706,
        0.5758638381958008,
        -1.4556463956832886
      ],
      "type": "VEC3"
    },
    {
      "bufferView": 1,
      "byteOffset": 22224,
      "componentType": 5126,
      "count": 56,
      "max": [
        1.0,
        0.0,
        1.0
      ],
      "min": [
        -1.0,
        0.0,
        -1.0
      ],
      "type": "VEC3"
    },
    {
      "bufferView": 0,
      "byteOffset": 8280,
      "componentType": 5125,
      "count": 120,
      "type": "SCALAR"
    },
    {
      "bufferView": 1,
      "byteOffset": 22896,
      "componentType": 5126,
      "count": 60,
      "max": [
        1.096306562423706,
        0.6184143424034119,
        1.4807720184326172
      ],
      "min": [
        -1.096306562423706,
        0.5310401320457458,
        -1.4556463956832886
      ],
      "type": "VEC3"
    },
    {
      "bufferView": 1,
      "byteOffset": 23616,
      "componentType": 5126,
      "count": 60,
      "max": [
        1.0,
        -0.0,
        1.0
      ],
      "min": [
        -1.0,
        -0.0,
        -1.0
      ],
      "type": "VEC3"
    },
    {
      "bufferView": 0,
      "byteOffset": 8760,
      "componentType": 5125,
      "count": 126,
      "type": "SCALAR"
    },
    {
      "bufferView": 1,
      "byteOffset": 24336,
      "componentType": 5126,
      "count": 243,
      "max": [
        1.096306562423706,
        0.7193202376365662,
        1.4807720184326172
      ],
      "min": [
        -1.096306562423706,
        -0.004972189664840698,
        -1.4556463956832886
      ],
      "type": "VEC3"
    },
    {
      "bufferView": 1,
      "byteOffset": 27252,
      "componentType": 5126,
      "count": 243,
      "max": [
        1.0,
        1.0,
        1.0
      ],
      "min": [
        -1.0,
        -1.0,
        -1.0
      ],
      "type": "VEC3"
    },
    {
      "bufferView": 0,
      "byteOffset": 9264,
      "componentType": 5125,
      "count": 648,
      "type": "SCALAR"
    }
  ],
  "asset": {
    "extras": {
      "author": "xenera (https://sketchfab.com/xenera)",
      "license": "CC-BY-NC-ND-4.0 (http://creativecommons.org/licenses/by-nc-nd/4.0/)",
      "source": "https://sketchfab.com/3d-models/town-building-711-3-d30b185736704d4b915697dde2c63855",
      "title": "town_building-711-3"
    },
    "generator": "Sketchfab-11.54.0",
    "version": "2.0"
  },
  "bufferViews": [
    {
      "buffer": 0,
      "byteLength": 11856,
      "name": "floatBufferViews",
      "target": 34963
    },
    {
      "buffer": 0,
      "byteLength": 30168,
      "byteOffset": 11856,
      "byteStride": 12,
      "name": "floatBufferViews",
      "target": 34962
    }
  ],
  "buffers": [
    {
      "byteLength": 42024,
      "uri": "convinience.bin"
    }
  ],
  "materials": [
    {
      "doubleSided": true,
      "name": "building_grey.002",
      "pbrMetallicRoughness": {
        "baseColorFactor": [
          0.195959,
          0.195959,
          0.195959,
          1.0
        ],
        "metallicFactor": 0.0,
        "roughnessFactor": 0.8
      }
    },
    {
      "doubleSided": true,
      "name": "building_orange",
      "pbrMetallicRoughness": {
        "baseColorFactor": [
          0.638219,
          0.272082,
          0.0507858,
          1.0
        ],
        "metallicFactor": 0.0,
        "roughnessFactor": 0.8
      }
    },
    {
      "doubleSided": true,
      "name": "building_black.002",
      "pbrMetallicRoughness": {
        "baseColorFactor": [
          0.0121286,
          0.013958,
          0.0203707,
          1.0
        ],
        "metallicFactor": 0.0,
        "roughnessFactor": 0.2
      }
    },
    {
      "doubleSided": true,
      "name": "building_blue.001",
      "pbrMetallicRoughness": {
        "baseColorFactor": [
          0.246844,
          0.327891,
          0.393073,
          1.0
        ],
        "metallicFactor": 0.0,
        "roughnessFactor": 0.8
      }
    },
    {
      "doubleSided": true,
      "name": "windows_black.001",
      "pbrMetallicRoughness": {
        "baseColorFactor": [
          0.0110821,
          0.0110821,
          0.0110821,
          1.0
        ],
        "metallicFactor": 0.0,
        "roughnessFactor": 0.0
      }
    },
    {
      "doubleSided": true,
      "name": "building_white2.002",
      "pbrMetallicRoughness": {
        "baseColorFactor": [
          0.827494,
          0.827494,
          0.827494,
          1.0
        ],
        "metallicFactor": 0.0,
        "roughnessFactor": 0.8
      }
    },
    {
      "doubleSided": true,
      "name": "building_green.002",
      "pbrMetallicRoughness": {
        "baseColorFactor": [
          0.0980068,
          0.570421,
          0.0857769,
          1.0
        ],
        "metallicFactor": 0.0,
        "roughnessFactor": 0.2
      }
    },
    {
      "doubleSided": true,
      "name": "building_red2",
      "pbrMetallicRoughness": {
        "baseColorFactor": [
          0.570421,
          0.0427716,
          0.0427716,
          1.0
        ],
        "metallicFactor": 0.0,
        "roughnessFactor": 0.2
      }
    }
  ],
  "meshes": [
    {
      "name": "Object_0",
      "primitives": [
        {
          "attributes": {
            "NORMAL": 1,
            "POSITION": 0
          },
          "indices": 2,
          "material": 0,
          "mode": 4
        }
      ]
    },
    {
      "name": "Object_1",
      "primitives": [
        {
          "attributes": {
            "NORMAL": 4,
            "POSITION": 3
          },
          "indices": 5,
          "material": 2,
          "mode": 4
        }
      ]
    },
    {
      "name": "Object_2",
      "primitives": [
        {
          "attributes": {
            "NORMAL": 7,
            "POSITION": 6
          },
          "indices": 8,
          "material": 3,
          "mode": 4
        }
      ]
    },
    {
      "name": "Object_3",
      "primitives": [
        {
          "attributes": {
            "NORMAL": 10,
            "POSITION": 9
          },
          "indices": 11,
          "material": 4,
          "mode": 4
        }
      ]
    },
    {
      "name": "Object_4",
      "primitives": [
        {
          "attributes": {
            "NORMAL": 13,
            "POSITION": 12
          },
          "indices": 14,
          "material": 5,
          "mode": 4
        }
      ]
    },
    {
      "name": "Object_5",
      "primitives": [
        {
          "attributes": {
            "NORMAL": 16,
            "POSITION": 15
          },
          "indices": 17,
          "material": 6,
          "mode": 4
        }
      ]
    },
    {
      "name": "Object_6",
      "primitives": [
        {
          "attributes": {
            "NORMAL": 19,
            "POSITION": 18
          },
          "indices": 20,
          "material": 7,
          "mode": 4
        }
      ]
    },
    {
      "name": "Object_7",
      "primitives": [
        {
          "attributes": {
            "NORMAL": 22,
            "POSITION": 21
          },
          "indices": 23,
          "material": 1,
          "mode": 4
        }
      ]
    }
  ],
  "nodes": [
    {
      "children": [
        1
      ],
      "matrix": [
        1.0,
        0.0,
        0.0,
        0.0,
        0.0,
        2.220446049250313e-16,
        -1.0,
        0.0,
        0.0,
        1.0,
        2.220446049250313e-16,
        0.0,
        0.0,
        0.0,
        0.0,
        1.0
      ],
      "name": "Sketchfab_model"
    },
    {
      "children": [
        2
      ],
      "name": "root"
    },
    {
      "children": [
        3
      ],
      "matrix": [
        1.0,
        0.0,
        0.0,
        0.0,
        0.0,
        2.220446049250313e-16,
        1.0,
        0.0,
        0.0,
        -1.0,
        2.220446049250313e-16,
        0.0,
        0.0,
        0.0,
        0.0,
        1.0
      ],
      "name": "GLTF_SceneRootNode"
    },
    {
      "children": [
        4,
        5,
        6,
        7,
        8,
        9,
        10,
        11
      ],
      "name": "7-1_store.001_0"
    },
    {
      "mesh": 0,
      "name": "Object_4"
    },
    {
      "mesh": 1,
      "name": "Object_5"
    },
    {
      "mesh": 2,
      "name": "Object_6"
    },
    {
      "mesh": 3,
      "name": "Object_7"
    },
    {
      "mesh": 4,
      "name": "Object_8"
    },
    {
      "mesh": 5,
      "name": "Object_9"
    },
    {
      "mesh": 6,
      "name": "Object_10"
    },
    {
      "mesh": 7,
      "name": "Object_11"
    }
  ],
  "scene": 0,
  "scenes": [
    {
      "name": "Sketchfab_Scene",
      "nodes": [
        0
      ]
    }
  ]
}
