{
  "accessors": [
    {
      "bufferView": 1,
      "componentType": 5126,
      "count": 2935,
      "max": [
        1.0209000110626221,
        1.0221500396728516,
        0.00049000000581145287
      ],
      "min": [
        -1.0120600461959839,
        -1.0190900564193726,
        -0.42666000127792358
      ],
      "type": "VEC3"
    },
    {
      "bufferView": 1,
      "byteOffset": 35220,
      "componentType": 5126,
      "count": 2935,
      "max": [
        0.99910300970077515,
        0.99995464086532593,
        0.99999570846557617
      ],
      "min": [
        -0.9996415376663208,
        -0.99972474575042725,
        -0.99998366832733154
      ],
      "type": "VEC3"
    },
    {
      "bufferView": 0,
      "componentType": 5125,
      "count": 4389,
      "max": [
        2934
      ],
      "min": [
        0
      ],
      "type": "SCALAR"
    },
    {
      "bufferView": 1,
      "byteOffset": 70440,
      "componentType": 5126,
      "count": 1636,
      "max": [
        1.0209000110626221,
        1.0153199434280396,
        0.023579999804496765
      ],
      "min": [
        -1.0135699510574341,
        -1.0146000385284424,
        -0.21077999472618103
      ],
      "type": "VEC3"
    },
    {
      "bufferView": 1,
      "byteOffset": 90072,
      "componentType": 5126,
      "count": 1636,
      "max": [
        0.99992728233337402,
        0.99975049495697021,
        0.1279296875
      ],
      "min": [
        -0.99979609251022339,
        -0.99952870607376099,
        -0.99994021654129028
      ],
      "type": "VEC3"
    },
    {
      "bufferView": 0,
      "byteOffset": 17556,
      "componentType": 5125,
      "count": 2454,
      "max": [
        1635
      ],
      "min": [
        0
      ],
      "type": "SCALAR"
    },
    {
      "bufferView": 1,
      "byteOffset": 109704,
      "componentType": 5126,
      "count": 224,
      "max": [
        2.1227600574493408,
        1.0330400466918945,
        0.11195000261068344
      ],
      "min": [
        -0.90118002891540527,
        -4.8900399208068848,
        -0.78868997097015381
      ],
      "type": "VEC3"
    },
    {
      "bufferView": 1,
      "byteOffset": 112392,
      "componentType": 5126,
      "count": 224,
      "max": [
        0.86820018291473389,
        0.99991965293884277,
        0.99745655059814453
      ],
      "min": [
        -0.88850027322769165,
        -0.99905687570571899,
        -0.99980902671813965
      ],
      "type": "VEC3"
    },
    {
      "bufferView": 0,
      "byteOffset": 27372,
      "componentType": 5125,
      "count": 336,
      "max": [
        223
      ],
      "min": [
        0
      ],
      "type": "SCALAR"
    }
  ],
  "asset": {
    "extras": {
      "author": "Brjce (https://sketchfab.com/brjce)",
      "license": "CC-BY-NC-4.0 (http://creativecommons.org/licenses/by-nc/4.0/)",
      "source": "https://sketchfab.com/models/aebcc71ae46a48a09d8443bf370c96e9",
      "title": "Natural ground #2 [LowPoly]"
    },
    "generator": "Sketchfab-3.20.7",
    "version": "2.0"
  },
  "bufferViews": [
    {
      "buffer": 0,
      "byteLength": 28716,
      "byteOffset": 0,
      "name": "floatBufferViews",
      "target": 34963
    },
    {
      "buffer": 0,
      "byteLength": 115080,
      "byteOffset": 28716,
      "byteStride": 12,
      "name": "floatBufferViews",
      "target": 34962
    }
  ],
  "buffers": [
    {
      "byteLength": 143796,
      "uri": "ground.bin"
    }
  ],
  "materials": [
    {
      "doubleSided": true,
      "emissiveFactor": [
        0,
        0,
        0
      ],
      "name": "Water",
      "pbrMetallicRoughness": {
        "baseColorFactor": [
          0.39217609170000001,
          0.64945983890000003,
          1,
          1
        ],
        "metallicFactor": 0,
        "roughnessFactor": 0.59999999999999998
      }
    },
    {
      "doubleSided": true,
      "emissiveFactor": [
        0,
        0,
        0
      ],
      "name": "Ground",
      "pbrMetallicRoughness": {
        "baseColorFactor": [
          0.25,
          0.1000000015,
          0.0250000004,
          1
        ],
        "metallicFactor": 0,
        "roughnessFactor": 0.59999999999999998
      }
    },
    {
      "doubleSided": true,
      "emissiveFactor": [
        0,
        0,
        0
      ],
      "name": "Grass",
      "pbrMetallicRoughness": {
        "baseColorFactor": [
          0.43760418890000002,
          0.8412023783,
          0.24241997300000001,
          1
        ],
        "metallicFactor": 0,
        "roughnessFactor": 0.59999999999999998
      }
    }
  ],
  "meshes": [
    {
      "name": "Plane_0",
      "primitives": [
        {
          "attributes": {
            "NORMAL": 1,
            "POSITION": 0
          },
          "indices": 2,
          "material": 1,
          "mode": 4
        }
      ]
    },
    {
      "name": "Plane_1",
      "primitives": [
        {
          "attributes": {
            "NORMAL": 4,
            "POSITION": 3
          },
          "indices": 5,
          "material": 2,
          "mode": 4
        }
      ]
    },
    {
      "name": "Plane.001_0",
      "primitives": [
        {
          "attributes": {
            "NORMAL": 7,
            "POSITION": 6
          },
          "indices": 8,
          "material": 0,
          "mode": 4
        }
      ]
    }
  ],
  "nodes": [
    {
      "children": [
        1
      ],
      "name": "RootNode (gltf orientation matrix)",
      "rotation": [
        -0.70710678118654746,
        -0,
        -0,
        0.70710678118654757
      ]
    },
    {
      "children": [
        2
      ],
      "name": "RootNode (model correction matrix)"
    },
    {
      "children": [
        3,
        5,
        8
      ],
      "name": "Root"
    },
    {
      "children": [
        4
      ],
      "matrix": [
        0.70711000000000002,
        0.70711000000000002,
        0,
        0,
        -0.5,
        0.5,
        0.70711000000000002,
        0,
        0.5,
        -0.5,
        0.70711000000000002,
        0,
        5.0762500000000008,
        -4.9945499999999994,
        5.9038600000000008,
        1
      ],
      "name": "Lamp"
    },
    {
      "name": "Lamp"
    },
    {
      "children": [
        6,
        7
      ],
      "matrix": [
        3,
        0,
        0,
        0,
        0,
        3,
        0,
        0,
        0,
        0,
        3,
        0,
        -1,
        1,
        0,
        1
      ],
      "name": "Plane"
    },
    {
      "mesh": 0,
      "name": "Plane_0"
    },
    {
      "mesh": 1,
      "name": "Plane_1"
    },
    {
      "children": [
        9
      ],
      "matrix": [
        1,
        0,
        0,
        0,
        0,
        1,
        0,
        0,
        0,
        0,
        1,
        0,
        -1.39337,
        2.91052,
        -0.34177000000000007,
        1
      ],
      "name": "Plane.001"
    },
    {
      "mesh": 2,
      "name": "Plane.001_0"
    }
  ],
  "scene": 0,
  "scenes": [
    {
      "name": "OSG_Scene",
      "nodes": [
        0
      ]
    }
  ]
}

