{
  "accessors": [
    {
      "bufferView": 2,
      "componentType": 5126,
      "count": 61709,
      "max": [
        2452.178466796875,
        1025.2467041015625,
        2576.350830078125
      ],
      "min": [
        -2452.178466796875,
        -1.0881572961807251e-05,
        -2576.3505859375
      ],
      "type": "VEC3"
    },
    {
      "bufferView": 2,
      "byteOffset": 740508,
      "componentType": 5126,
      "count": 61709,
      "max": [
        1,
        1,
        1
      ],
      "min": [
        -1,
        -1,
        -1
      ],
      "type": "VEC3"
    },
    {
      "bufferView": 1,
      "componentType": 5126,
      "count": 61709,
      "max": [
        0.99721235036849976,
        0.99840128421783447
      ],
      "min": [
        0.0025079105980694294,
        0.0051474571228027344
      ],
      "type": "VEC2"
    },
    {
      "bufferView": 1,
      "byteOffset": 493672,
      "componentType": 5126,
      "count": 61709,
      "max": [
        0.99721235036849976,
        0.99840128421783447
      ],
      "min": [
        0.0025079105980694294,
        0.0051474571228027344
      ],
      "type": "VEC2"
    },
    {
      "bufferView": 1,
      "byteOffset": 987344,
      "componentType": 5126,
      "count": 61709,
      "max": [
        0.99721235036849976,
        0.99840128421783447
      ],
      "min": [
        0.0025079105980694294,
        0.0051474571228027344
      ],
      "type": "VEC2"
    },
    {
      "bufferView": 0,
      "componentType": 5125,
      "count": 145044,
      "max": [
        61708
      ],
      "min": [
        0
      ],
      "type": "SCALAR"
    }
  ],
  "asset": {
    "extras": {
      "author": "neilnyinyi1997 (https://sketchfab.com/neilnyinyi1997)",
      "license": "CC-BY-4.0 (http://creativecommons.org/licenses/by/4.0/)",
      "source": "https://sketchfab.com/3d-models/sports-stadium-55dd38f8f54840d5b6c7096e39cdba22",
      "title": "Sports Stadium"
    },
    "generator": "Sketchfab-9.62.3",
    "version": "2.0"
  },
  "bufferViews": [
    {
      "buffer": 0,
      "byteLength": 580176,
      "byteOffset": 0,
      "name": "floatBufferViews",
      "target": 34963
    },
    {
      "buffer": 0,
      "byteLength": 1481016,
      "byteOffset": 580176,
      "byteStride": 8,
      "name": "floatBufferViews",
      "target": 34962
    },
    {
      "buffer": 0,
      "byteLength": 1481016,
      "byteOffset": 2061192,
      "byteStride": 12,
      "name": "floatBufferViews",
      "target": 34962
    }
  ],
  "buffers": [
    {
      "byteLength": 3542208,
      "uri": "gym.bin"
    }
  ],
  "extensionsRequired": [
    "KHR_materials_pbrSpecularGlossiness"
  ],
  "extensionsUsed": [
    "KHR_materials_pbrSpecularGlossiness"
  ],
  "images": [
    {
      "uri": "textures/material_0_diffuse3.png"
    },
    {
      "uri": "textures/material_0_specularGlossiness3.png"
    }
  ],
  "materials": [
    {
      "doubleSided": true,
      "emissiveFactor": [
        0,
        0,
        0
      ],
      "extensions": {
        "KHR_materials_pbrSpecularGlossiness": {
          "diffuseFactor": [
            1,
            1,
            1,
            1
          ],
          "diffuseTexture": {
            "index": 0,
            "texCoord": 0
          },
          "glossinessFactor": 1,
          "specularFactor": [
            1,
            1,
            1
          ],
          "specularGlossinessTexture": {
            "index": 1,
            "texCoord": 0
          }
        }
      },
      "name": "material_0"
    }
  ],
  "meshes": [
    {
      "primitives": [
        {
          "attributes": {
            "NORMAL": 1,
            "POSITION": 0,
            "TEXCOORD_0": 2,
            "TEXCOORD_1": 3,
            "TEXCOORD_2": 4
          },
          "indices": 5,
          "material": 0,
          "mode": 4
        }
      ]
    }
  ],
  "nodes": [
    {
      "children": [
        1
      ],
      "name": "RootNode (gltf orientation matrix)",
      "rotation": [
        -0.70710678118654746,
        -0,
        -0,
        0.70710678118654757
      ]
    },
    {
      "children": [
        2
      ],
      "name": "RootNode (model correction matrix)"
    },
    {
      "children": [
        3
      ],
      "name": "root"
    },
    {
      "children": [
        4
      ],
      "matrix": [
        1,
        0,
        0,
        0,
        0,
        2.2204460492503131e-16,
        1,
        0,
        0,
        -1,
        2.2204460492503131e-16,
        0,
        0,
        0,
        0,
        1
      ],
      "name": "GLTF_SceneRootNode"
    },
    {
      "children": [
        5
      ],
      "matrix": [
        0.0099999997764825821,
        0,
        0,
        0,
        0,
        0.0099999997764825821,
        0,
        0,
        0,
        0,
        0.0099999997764825821,
        0,
        0,
        0,
        0,
        1
      ],
      "name": "RootNode.0_0"
    },
    {
      "children": [
        6
      ],
      "name": "stadium.1_1"
    },
    {
      "mesh": 0,
      "name": ""
    }
  ],
  "samplers": [
    {
      "magFilter": 9729,
      "minFilter": 9987,
      "wrapS": 10497,
      "wrapT": 10497
    }
  ],
  "scene": 0,
  "scenes": [
    {
      "name": "OSG_Scene",
      "nodes": [
        0
      ]
    }
  ],
  "textures": [
    {
      "sampler": 0,
      "source": 0
    },
    {
      "sampler": 0,
      "source": 1
    }
  ]
}

