{
    "asset" : {
        "generator" : "Khronos glTF Blender I/O v1.6.16",
        "version" : "2.0"
    },
    "extensionsUsed" : [
        "KHR_texture_transform"
    ],
    "extensionsRequired" : [
        "KHR_texture_transform"
    ],
    "scene" : 0,
    "scenes" : [
        {
            "name" : "Scene",
            "nodes" : [
                0,
                1,
                2,
                3
            ]
        }
    ],
    "nodes" : [
        {
            "name" : "Light",
            "rotation" : [
                0.16907575726509094,
                0.7558803558349609,
                -0.27217137813568115,
                0.570947527885437
            ],
            "translation" : [
                4.076245307922363,
                5.903861999511719,
                -1.0054539442062378
            ]
        },
        {
            "name" : "Camera",
            "rotation" : [
                0.483536034822464,
                0.33687159419059753,
                -0.20870360732078552,
                0.7804827094078064
            ],
            "translation" : [
                7.358891487121582,
                4.958309173583984,
                6.925790786743164
            ]
        },
        {
            "name" : "CINEMA_4D_\uc5d0\ub514\ud130",
            "rotation" : [
                0.31241878867149353,
                -0.5335418581962585,
                0.7542456388473511,
                0.22100022435188293
            ],
            "scale" : [
                0.009999999776482582,
                0.009999999776482582,
                0.009999999776482582
            ],
            "translation" : [
                0.1057196781039238,
                0.0572485476732254,
                0.1039799153804779
            ]
        },
        {
            "mesh" : 0,
            "name" : "stadium",
            "scale" : [
                0.009999999776482582,
                0.009999999776482582,
                0.009999999776482582
            ]
        }
    ],
    "materials" : [
        {
            "doubleSided" : true,
            "name" : "grey02",
            "pbrMetallicRoughness" : {
                "baseColorTexture" : {
                    "extensions" : {
                        "KHR_texture_transform" : {
                            "offset" : [
                                0,
                                -1
                            ]
                        }
                    },
                    "index" : 0
                },
                "metallicFactor" : 0,
                "roughnessFactor" : 0.4343145787715912
            }
        },
        {
            "doubleSided" : true,
            "name" : "green02",
            "pbrMetallicRoughness" : {
                "baseColorTexture" : {
                    "extensions" : {
                        "KHR_texture_transform" : {
                            "offset" : [
                                0,
                                -1
                            ]
                        }
                    },
                    "index" : 1
                },
                "metallicFactor" : 0,
                "roughnessFactor" : 0.4343145787715912
            }
        },
        {
            "doubleSided" : true,
            "name" : "grey05",
            "pbrMetallicRoughness" : {
                "baseColorTexture" : {
                    "extensions" : {
                        "KHR_texture_transform" : {
                            "offset" : [
                                0,
                                -1
                            ]
                        }
                    },
                    "index" : 2
                },
                "metallicFactor" : 0,
                "roughnessFactor" : 0.4343145787715912
            }
        },
        {
            "doubleSided" : true,
            "name" : "brown04",
            "pbrMetallicRoughness" : {
                "baseColorTexture" : {
                    "extensions" : {
                        "KHR_texture_transform" : {
                            "offset" : [
                                0,
                                -1
                            ]
                        }
                    },
                    "index" : 3
                },
                "metallicFactor" : 0,
                "roughnessFactor" : 0.4343145787715912
            }
        },
        {
            "doubleSided" : true,
            "name" : "grey04",
            "pbrMetallicRoughness" : {
                "baseColorTexture" : {
                    "extensions" : {
                        "KHR_texture_transform" : {
                            "offset" : [
                                0,
                                -1
                            ]
                        }
                    },
                    "index" : 4
                },
                "metallicFactor" : 0,
                "roughnessFactor" : 0.4343145787715912
            }
        },
        {
            "doubleSided" : true,
            "name" : "grey01",
            "pbrMetallicRoughness" : {
                "baseColorTexture" : {
                    "extensions" : {
                        "KHR_texture_transform" : {
                            "offset" : [
                                0,
                                -1
                            ]
                        }
                    },
                    "index" : 5
                },
                "metallicFactor" : 0,
                "roughnessFactor" : 0.4343145787715912
            }
        },
        {
            "doubleSided" : true,
            "name" : "red01",
            "pbrMetallicRoughness" : {
                "baseColorTexture" : {
                    "extensions" : {
                        "KHR_texture_transform" : {
                            "offset" : [
                                0,
                                -1
                            ]
                        }
                    },
                    "index" : 6
                },
                "metallicFactor" : 0,
                "roughnessFactor" : 0.4343145787715912
            }
        },
        {
            "doubleSided" : true,
            "name" : "blue05",
            "pbrMetallicRoughness" : {
                "baseColorTexture" : {
                    "extensions" : {
                        "KHR_texture_transform" : {
                            "offset" : [
                                0,
                                -1
                            ]
                        }
                    },
                    "index" : 7
                },
                "metallicFactor" : 0,
                "roughnessFactor" : 0.4343145787715912
            }
        }
    ],
    "meshes" : [
        {
            "name" : "\uba54\uc26c",
            "primitives" : [
                {
                    "attributes" : {
                        "POSITION" : 0,
                        "NORMAL" : 1,
                        "TEXCOORD_0" : 2
                    },
                    "indices" : 3,
                    "material" : 0
                },
                {
                    "attributes" : {
                        "POSITION" : 4,
                        "NORMAL" : 5,
                        "TEXCOORD_0" : 6
                    },
                    "indices" : 7,
                    "material" : 1
                },
                {
                    "attributes" : {
                        "POSITION" : 8,
                        "NORMAL" : 9,
                        "TEXCOORD_0" : 10
                    },
                    "indices" : 11,
                    "material" : 2
                },
                {
                    "attributes" : {
                        "POSITION" : 12,
                        "NORMAL" : 13,
                        "TEXCOORD_0" : 14
                    },
                    "indices" : 15,
                    "material" : 3
                },
                {
                    "attributes" : {
                        "POSITION" : 16,
                        "NORMAL" : 17,
                        "TEXCOORD_0" : 18
                    },
                    "indices" : 19,
                    "material" : 4
                },
                {
                    "attributes" : {
                        "POSITION" : 20,
                        "NORMAL" : 21,
                        "TEXCOORD_0" : 22
                    },
                    "indices" : 23,
                    "material" : 5
                },
                {
                    "attributes" : {
                        "POSITION" : 24,
                        "NORMAL" : 25,
                        "TEXCOORD_0" : 26
                    },
                    "indices" : 27,
                    "material" : 6
                },
                {
                    "attributes" : {
                        "POSITION" : 28,
                        "NORMAL" : 29,
                        "TEXCOORD_0" : 30
                    },
                    "indices" : 31,
                    "material" : 7
                }
            ]
        }
    ],
    "textures" : [
        {
            "sampler" : 0,
            "source" : 0
        },
        {
            "sampler" : 0,
            "source" : 1
        },
        {
            "sampler" : 0,
            "source" : 2
        },
        {
            "sampler" : 0,
            "source" : 3
        },
        {
            "sampler" : 0,
            "source" : 4
        },
        {
            "sampler" : 0,
            "source" : 5
        },
        {
            "sampler" : 0,
            "source" : 6
        },
        {
            "sampler" : 0,
            "source" : 7
        }
    ],
    "images" : [
        {
            "bufferView" : 4,
            "mimeType" : "image/jpeg",
            "name" : "grey02"
        },
        {
            "bufferView" : 9,
            "mimeType" : "image/jpeg",
            "name" : "green02"
        },
        {
            "bufferView" : 14,
            "mimeType" : "image/jpeg",
            "name" : "grey05"
        },
        {
            "bufferView" : 19,
            "mimeType" : "image/jpeg",
            "name" : "brown04"
        },
        {
            "bufferView" : 24,
            "mimeType" : "image/jpeg",
            "name" : "grey04"
        },
        {
            "bufferView" : 29,
            "mimeType" : "image/jpeg",
            "name" : "grey01"
        },
        {
            "bufferView" : 34,
            "mimeType" : "image/jpeg",
            "name" : "red01"
        },
        {
            "bufferView" : 39,
            "mimeType" : "image/jpeg",
            "name" : "blue05"
        }
    ],
    "accessors" : [
        {
            "bufferView" : 0,
            "componentType" : 5126,
            "count" : 1744,
            "max" : [
                1.7642102241516113,
                0.09765006601810455,
                1.2806265354156494
            ],
            "min" : [
                -1.7642102241516113,
                -0.6982508897781372,
                -1.280627727508545
            ],
            "type" : "VEC3"
        },
        {
            "bufferView" : 1,
            "componentType" : 5126,
            "count" : 1744,
            "type" : "VEC3"
        },
        {
            "bufferView" : 2,
            "componentType" : 5126,
            "count" : 1744,
            "type" : "VEC2"
        },
        {
            "bufferView" : 3,
            "componentType" : 5123,
            "count" : 3372,
            "type" : "SCALAR"
        },
        {
            "bufferView" : 5,
            "componentType" : 5126,
            "count" : 36,
            "max" : [
                1.9855868816375732,
                -0.6749489307403564,
                1.9927964210510254
            ],
            "min" : [
                -1.947721242904663,
                -0.698250949382782,
                -1.274463176727295
            ],
            "type" : "VEC3"
        },
        {
            "bufferView" : 6,
            "componentType" : 5126,
            "count" : 36,
            "type" : "VEC3"
        },
        {
            "bufferView" : 7,
            "componentType" : 5126,
            "count" : 36,
            "type" : "VEC2"
        },
        {
            "bufferView" : 8,
            "componentType" : 5123,
            "count" : 60,
            "type" : "SCALAR"
        },
        {
            "bufferView" : 10,
            "componentType" : 5126,
            "count" : 480,
            "max" : [
                2.017086982727051,
                0.03675016015768051,
                2.024296522140503
            ],
            "min" : [
                -1.9792213439941406,
                -0.6982510089874268,
                -1.3059611320495605
            ],
            "type" : "VEC3"
        },
        {
            "bufferView" : 11,
            "componentType" : 5126,
            "count" : 480,
            "type" : "VEC3"
        },
        {
            "bufferView" : 12,
            "componentType" : 5126,
            "count" : 480,
            "type" : "VEC2"
        },
        {
            "bufferView" : 13,
            "componentType" : 5123,
            "count" : 792,
            "type" : "SCALAR"
        },
        {
            "bufferView" : 15,
            "componentType" : 5126,
            "count" : 192,
            "max" : [
                1.129625916481018,
                -0.027886010706424713,
                0.7405414581298828
            ],
            "min" : [
                -1.129625916481018,
                -0.5512514114379883,
                -0.740542471408844
            ],
            "type" : "VEC3"
        },
        {
            "bufferView" : 16,
            "componentType" : 5126,
            "count" : 192,
            "type" : "VEC3"
        },
        {
            "bufferView" : 17,
            "componentType" : 5126,
            "count" : 192,
            "type" : "VEC2"
        },
        {
            "bufferView" : 18,
            "componentType" : 5123,
            "count" : 288,
            "type" : "SCALAR"
        },
        {
            "bufferView" : 20,
            "componentType" : 5126,
            "count" : 1272,
            "max" : [
                2.017086982727051,
                -0.3124384582042694,
                2.024296522140503
            ],
            "min" : [
                -1.9792213439941406,
                -0.7203841805458069,
                -1.3059611320495605
            ],
            "type" : "VEC3"
        },
        {
            "bufferView" : 21,
            "componentType" : 5126,
            "count" : 1272,
            "type" : "VEC3"
        },
        {
            "bufferView" : 22,
            "componentType" : 5126,
            "count" : 1272,
            "type" : "VEC2"
        },
        {
            "bufferView" : 23,
            "componentType" : 5123,
            "count" : 2196,
            "type" : "SCALAR"
        },
        {
            "bufferView" : 25,
            "componentType" : 5126,
            "count" : 288,
            "max" : [
                1.0330404043197632,
                -0.5047423243522644,
                0.1289658397436142
            ],
            "min" : [
                -1.0330383777618408,
                -0.6965738534927368,
                -0.12896747887134552
            ],
            "type" : "VEC3"
        },
        {
            "bufferView" : 26,
            "componentType" : 5126,
            "count" : 288,
            "type" : "VEC3"
        },
        {
            "bufferView" : 27,
            "componentType" : 5126,
            "count" : 288,
            "type" : "VEC2"
        },
        {
            "bufferView" : 28,
            "componentType" : 5123,
            "count" : 480,
            "type" : "SCALAR"
        },
        {
            "bufferView" : 30,
            "componentType" : 5126,
            "count" : 2168,
            "max" : [
                1.547910213470459,
                0.03675006330013275,
                1.5953744649887085
            ],
            "min" : [
                -1.547910213470459,
                -0.6982510089874268,
                -1.0643278360366821
            ],
            "type" : "VEC3"
        },
        {
            "bufferView" : 31,
            "componentType" : 5126,
            "count" : 2168,
            "type" : "VEC3"
        },
        {
            "bufferView" : 32,
            "componentType" : 5126,
            "count" : 2168,
            "type" : "VEC2"
        },
        {
            "bufferView" : 33,
            "componentType" : 5123,
            "count" : 4596,
            "type" : "SCALAR"
        },
        {
            "bufferView" : 35,
            "componentType" : 5126,
            "count" : 48,
            "max" : [
                0.39008116722106934,
                -0.3358154594898224,
                1.3968486785888672
            ],
            "min" : [
                -0.35222092270851135,
                -0.6893009543418884,
                1.029175043106079
            ],
            "type" : "VEC3"
        },
        {
            "bufferView" : 36,
            "componentType" : 5126,
            "count" : 48,
            "type" : "VEC3"
        },
        {
            "bufferView" : 37,
            "componentType" : 5126,
            "count" : 48,
            "type" : "VEC2"
        },
        {
            "bufferView" : 38,
            "componentType" : 5123,
            "count" : 72,
            "type" : "SCALAR"
        }
    ],
    "bufferViews" : [
        {
            "buffer" : 0,
            "byteLength" : 20928,
            "byteOffset" : 0
        },
        {
            "buffer" : 0,
            "byteLength" : 20928,
            "byteOffset" : 20928
        },
        {
            "buffer" : 0,
            "byteLength" : 13952,
            "byteOffset" : 41856
        },
        {
            "buffer" : 0,
            "byteLength" : 6744,
            "byteOffset" : 55808
        },
        {
            "buffer" : 0,
            "byteLength" : 12698,
            "byteOffset" : 62552
        },
        {
            "buffer" : 0,
            "byteLength" : 432,
            "byteOffset" : 75252
        },
        {
            "buffer" : 0,
            "byteLength" : 432,
            "byteOffset" : 75684
        },
        {
            "buffer" : 0,
            "byteLength" : 288,
            "byteOffset" : 76116
        },
        {
            "buffer" : 0,
            "byteLength" : 120,
            "byteOffset" : 76404
        },
        {
            "buffer" : 0,
            "byteLength" : 12714,
            "byteOffset" : 76524
        },
        {
            "buffer" : 0,
            "byteLength" : 5760,
            "byteOffset" : 89240
        },
        {
            "buffer" : 0,
            "byteLength" : 5760,
            "byteOffset" : 95000
        },
        {
            "buffer" : 0,
            "byteLength" : 3840,
            "byteOffset" : 100760
        },
        {
            "buffer" : 0,
            "byteLength" : 1584,
            "byteOffset" : 104600
        },
        {
            "buffer" : 0,
            "byteLength" : 12697,
            "byteOffset" : 106184
        },
        {
            "buffer" : 0,
            "byteLength" : 2304,
            "byteOffset" : 118884
        },
        {
            "buffer" : 0,
            "byteLength" : 2304,
            "byteOffset" : 121188
        },
        {
            "buffer" : 0,
            "byteLength" : 1536,
            "byteOffset" : 123492
        },
        {
            "buffer" : 0,
            "byteLength" : 576,
            "byteOffset" : 125028
        },
        {
            "buffer" : 0,
            "byteLength" : 12740,
            "byteOffset" : 125604
        },
        {
            "buffer" : 0,
            "byteLength" : 15264,
            "byteOffset" : 138344
        },
        {
            "buffer" : 0,
            "byteLength" : 15264,
            "byteOffset" : 153608
        },
        {
            "buffer" : 0,
            "byteLength" : 10176,
            "byteOffset" : 168872
        },
        {
            "buffer" : 0,
            "byteLength" : 4392,
            "byteOffset" : 179048
        },
        {
            "buffer" : 0,
            "byteLength" : 12696,
            "byteOffset" : 183440
        },
        {
            "buffer" : 0,
            "byteLength" : 3456,
            "byteOffset" : 196136
        },
        {
            "buffer" : 0,
            "byteLength" : 3456,
            "byteOffset" : 199592
        },
        {
            "buffer" : 0,
            "byteLength" : 2304,
            "byteOffset" : 203048
        },
        {
            "buffer" : 0,
            "byteLength" : 960,
            "byteOffset" : 205352
        },
        {
            "buffer" : 0,
            "byteLength" : 12700,
            "byteOffset" : 206312
        },
        {
            "buffer" : 0,
            "byteLength" : 26016,
            "byteOffset" : 219012
        },
        {
            "buffer" : 0,
            "byteLength" : 26016,
            "byteOffset" : 245028
        },
        {
            "buffer" : 0,
            "byteLength" : 17344,
            "byteOffset" : 271044
        },
        {
            "buffer" : 0,
            "byteLength" : 9192,
            "byteOffset" : 288388
        },
        {
            "buffer" : 0,
            "byteLength" : 12720,
            "byteOffset" : 297580
        },
        {
            "buffer" : 0,
            "byteLength" : 576,
            "byteOffset" : 310300
        },
        {
            "buffer" : 0,
            "byteLength" : 576,
            "byteOffset" : 310876
        },
        {
            "buffer" : 0,
            "byteLength" : 384,
            "byteOffset" : 311452
        },
        {
            "buffer" : 0,
            "byteLength" : 144,
            "byteOffset" : 311836
        },
        {
            "buffer" : 0,
            "byteLength" : 12738,
            "byteOffset" : 311980
        }
    ],
    "samplers" : [
        {
            "magFilter" : 9729,
            "minFilter" : 9987
        }
    ],
    "buffers" : [
        {
            "byteLength" : 324720,
            "uri" : "data:application/octet-stream;base64,"
        }
    ]
}
