{
    "asset" : {
        "generator" : "Khronos glTF Blender I/O v1.6.16",
        "version" : "2.0"
    },
    "extensionsUsed" : [
        "KHR_texture_transform"
    ],
    "extensionsRequired" : [
        "KHR_texture_transform"
    ],
    "scene" : 0,
    "scenes" : [
        {
            "name" : "Scene",
            "nodes" : [
                0,
                1,
                2,
                3
            ]
        }
    ],
    "nodes" : [
        {
            "name" : "Light",
            "rotation" : [
                0.16907575726509094,
                0.7558803558349609,
                -0.27217137813568115,
                0.570947527885437
            ],
            "translation" : [
                4.076245307922363,
                5.903861999511719,
                -1.0054539442062378
            ]
        },
        {
            "name" : "Camera",
            "rotation" : [
                0.483536034822464,
                0.33687159419059753,
                -0.20870360732078552,
                0.7804827094078064
            ],
            "translation" : [
                7.358891487121582,
                4.958309173583984,
                6.925790786743164
            ]
        },
        {
            "name" : "CINEMA_4D_\uc5d0\ub514\ud130",
            "rotation" : [
                0.31241878867149353,
                -0.5335418581962585,
                0.7542456388473511,
                0.22100022435188293
            ],
            "scale" : [
                0.009999999776482582,
                0.009999999776482582,
                0.009999999776482582
            ],
            "translation" : [
                0.1057196781039238,
                0.0572485476732254,
                0.1039799153804779
            ]
        },
        {
            "mesh" : 0,
            "name" : "N_tower",
            "rotation" : [
                0.7071068286895752,
                0,
                0,
                0.7071067094802856
            ],
            "scale" : [
                0.009999999776482582,
                0.009999999776482582,
                0.009999999776482582
            ]
        }
    ],
    "materials" : [
        {
            "doubleSided" : true,
            "name" : "grey02",
            "pbrMetallicRoughness" : {
                "baseColorTexture" : {
                    "extensions" : {
                        "KHR_texture_transform" : {
                            "offset" : [
                                0,
                                -1
                            ]
                        }
                    },
                    "index" : 0
                },
                "metallicFactor" : 0,
                "roughnessFactor" : 0.4343145787715912
            }
        },
        {
            "doubleSided" : true,
            "name" : "blue05",
            "pbrMetallicRoughness" : {
                "baseColorTexture" : {
                    "extensions" : {
                        "KHR_texture_transform" : {
                            "offset" : [
                                0,
                                -1
                            ]
                        }
                    },
                    "index" : 1
                },
                "metallicFactor" : 0,
                "roughnessFactor" : 0.4343145787715912
            }
        },
        {
            "doubleSided" : true,
            "name" : "red02",
            "pbrMetallicRoughness" : {
                "baseColorTexture" : {
                    "extensions" : {
                        "KHR_texture_transform" : {
                            "offset" : [
                                0,
                                -1
                            ]
                        }
                    },
                    "index" : 2
                },
                "metallicFactor" : 0,
                "roughnessFactor" : 0.4343145787715912
            }
        },
        {
            "doubleSided" : true,
            "name" : "blue01",
            "pbrMetallicRoughness" : {
                "baseColorTexture" : {
                    "extensions" : {
                        "KHR_texture_transform" : {
                            "offset" : [
                                0,
                                -1
                            ]
                        }
                    },
                    "index" : 3
                },
                "metallicFactor" : 0,
                "roughnessFactor" : 0.4343145787715912
            }
        }
    ],
    "meshes" : [
        {
            "name" : "\uba54\uc26c",
            "primitives" : [
                {
                    "attributes" : {
                        "POSITION" : 0,
                        "NORMAL" : 1,
                        "TEXCOORD_0" : 2
                    },
                    "indices" : 3,
                    "material" : 0
                },
                {
                    "attributes" : {
                        "POSITION" : 4,
                        "NORMAL" : 5,
                        "TEXCOORD_0" : 6
                    },
                    "indices" : 7,
                    "material" : 1
                },
                {
                    "attributes" : {
                        "POSITION" : 8,
                        "NORMAL" : 9,
                        "TEXCOORD_0" : 10
                    },
                    "indices" : 11,
                    "material" : 2
                },
                {
                    "attributes" : {
                        "POSITION" : 12,
                        "NORMAL" : 13,
                        "TEXCOORD_0" : 14
                    },
                    "indices" : 15,
                    "material" : 3
                }
            ]
        }
    ],
    "textures" : [
        {
            "sampler" : 0,
            "source" : 0
        },
        {
            "sampler" : 0,
            "source" : 1
        },
        {
            "sampler" : 0,
            "source" : 2
        },
        {
            "sampler" : 0,
            "source" : 3
        }
    ],
    "images" : [
        {
            "bufferView" : 4,
            "mimeType" : "image/jpeg",
            "name" : "grey02"
        },
        {
            "bufferView" : 9,
            "mimeType" : "image/jpeg",
            "name" : "blue05"
        },
        {
            "bufferView" : 14,
            "mimeType" : "image/jpeg",
            "name" : "red02"
        },
        {
            "bufferView" : 19,
            "mimeType" : "image/jpeg",
            "name" : "blue01"
        }
    ],
    "accessors" : [
        {
            "bufferView" : 0,
            "componentType" : 5126,
            "count" : 1517,
            "max" : [
                0.6941072344779968,
                1.265702247619629,
                0.45614346861839294
            ],
            "min" : [
                -0.7483717203140259,
                -0.5898403525352478,
                -5.805555820465088
            ],
            "type" : "VEC3"
        },
        {
            "bufferView" : 1,
            "componentType" : 5126,
            "count" : 1517,
            "type" : "VEC3"
        },
        {
            "bufferView" : 2,
            "componentType" : 5126,
            "count" : 1517,
            "type" : "VEC2"
        },
        {
            "bufferView" : 3,
            "componentType" : 5123,
            "count" : 3135,
            "type" : "SCALAR"
        },
        {
            "bufferView" : 5,
            "componentType" : 5126,
            "count" : 1202,
            "max" : [
                0.4218692481517792,
                0.4218693673610687,
                -0.33193066716194153
            ],
            "min" : [
                -0.4218692481517792,
                -0.4218692481517792,
                -3.505669355392456
            ],
            "type" : "VEC3"
        },
        {
            "bufferView" : 6,
            "componentType" : 5126,
            "count" : 1202,
            "type" : "VEC3"
        },
        {
            "bufferView" : 7,
            "componentType" : 5126,
            "count" : 1202,
            "type" : "VEC2"
        },
        {
            "bufferView" : 8,
            "componentType" : 5123,
            "count" : 1842,
            "type" : "SCALAR"
        },
        {
            "bufferView" : 10,
            "componentType" : 5126,
            "count" : 256,
            "max" : [
                0.09562887996435165,
                0.09562904387712479,
                -3.922736167907715
            ],
            "min" : [
                -0.09562887996435165,
                -0.09562872350215912,
                -5.340432167053223
            ],
            "type" : "VEC3"
        },
        {
            "bufferView" : 11,
            "componentType" : 5126,
            "count" : 256,
            "type" : "VEC3"
        },
        {
            "bufferView" : 12,
            "componentType" : 5126,
            "count" : 256,
            "type" : "VEC2"
        },
        {
            "bufferView" : 13,
            "componentType" : 5123,
            "count" : 384,
            "type" : "SCALAR"
        },
        {
            "bufferView" : 15,
            "componentType" : 5126,
            "count" : 388,
            "max" : [
                0.694107174873352,
                0.8393509984016418,
                0.35864463448524475
            ],
            "min" : [
                -0.4411086142063141,
                -0.44110867381095886,
                -3.484675884246826
            ],
            "type" : "VEC3"
        },
        {
            "bufferView" : 16,
            "componentType" : 5126,
            "count" : 388,
            "type" : "VEC3"
        },
        {
            "bufferView" : 17,
            "componentType" : 5126,
            "count" : 388,
            "type" : "VEC2"
        },
        {
            "bufferView" : 18,
            "componentType" : 5123,
            "count" : 582,
            "type" : "SCALAR"
        }
    ],
    "bufferViews" : [
        {
            "buffer" : 0,
            "byteLength" : 18204,
            "byteOffset" : 0
        },
        {
            "buffer" : 0,
            "byteLength" : 18204,
            "byteOffset" : 18204
        },
        {
            "buffer" : 0,
            "byteLength" : 12136,
            "byteOffset" : 36408
        },
        {
            "buffer" : 0,
            "byteLength" : 6270,
            "byteOffset" : 48544
        },
        {
            "buffer" : 0,
            "byteLength" : 12698,
            "byteOffset" : 54816
        },
        {
            "buffer" : 0,
            "byteLength" : 14424,
            "byteOffset" : 67516
        },
        {
            "buffer" : 0,
            "byteLength" : 14424,
            "byteOffset" : 81940
        },
        {
            "buffer" : 0,
            "byteLength" : 9616,
            "byteOffset" : 96364
        },
        {
            "buffer" : 0,
            "byteLength" : 3684,
            "byteOffset" : 105980
        },
        {
            "buffer" : 0,
            "byteLength" : 12738,
            "byteOffset" : 109664
        },
        {
            "buffer" : 0,
            "byteLength" : 3072,
            "byteOffset" : 122404
        },
        {
            "buffer" : 0,
            "byteLength" : 3072,
            "byteOffset" : 125476
        },
        {
            "buffer" : 0,
            "byteLength" : 2048,
            "byteOffset" : 128548
        },
        {
            "buffer" : 0,
            "byteLength" : 768,
            "byteOffset" : 130596
        },
        {
            "buffer" : 0,
            "byteLength" : 12736,
            "byteOffset" : 131364
        },
        {
            "buffer" : 0,
            "byteLength" : 4656,
            "byteOffset" : 144100
        },
        {
            "buffer" : 0,
            "byteLength" : 4656,
            "byteOffset" : 148756
        },
        {
            "buffer" : 0,
            "byteLength" : 3104,
            "byteOffset" : 153412
        },
        {
            "buffer" : 0,
            "byteLength" : 1164,
            "byteOffset" : 156516
        },
        {
            "buffer" : 0,
            "byteLength" : 12696,
            "byteOffset" : 157680
        }
    ],
    "samplers" : [
        {
            "magFilter" : 9729,
            "minFilter" : 9987
        }
    ],
    "buffers" : [
        {
            "byteLength" : 170376,
            "uri" : "data:application/octet-stream;base64,"
        }
    ]
}
