{
    "asset" : {
        "generator" : "Khronos glTF Blender I/O v1.6.16",
        "version" : "2.0"
    },
    "extensionsUsed" : [
        "KHR_texture_transform"
    ],
    "extensionsRequired" : [
        "KHR_texture_transform"
    ],
    "scene" : 0,
    "scenes" : [
        {
            "name" : "Scene",
            "nodes" : [
                0,
                1,
                2,
                3
            ]
        }
    ],
    "nodes" : [
        {
            "name" : "Light",
            "rotation" : [
                0.16907575726509094,
                0.7558803558349609,
                -0.27217137813568115,
                0.570947527885437
            ],
            "translation" : [
                4.076245307922363,
                5.903861999511719,
                -1.0054539442062378
            ]
        },
        {
            "name" : "Camera",
            "rotation" : [
                0.483536034822464,
                0.33687159419059753,
                -0.20870360732078552,
                0.7804827094078064
            ],
            "translation" : [
                7.358891487121582,
                4.958309173583984,
                6.925790786743164
            ]
        },
        {
            "name" : "CINEMA_4D_\uc5d0\ub514\ud130",
            "rotation" : [
                0.31241878867149353,
                -0.5335418581962585,
                0.7542456388473511,
                0.22100022435188293
            ],
            "scale" : [
                0.009999999776482582,
                0.009999999776482582,
                0.009999999776482582
            ],
            "translation" : [
                0.1057196781039238,
                0.0572485476732254,
                0.1039799153804779
            ]
        },
        {
            "mesh" : 0,
            "name" : "Gung",
            "rotation" : [
                0.7071068286895752,
                0,
                0,
                0.7071067094802856
            ],
            "scale" : [
                0.009999999776482582,
                0.009999999776482582,
                0.009999999776482582
            ],
            "translation" : [
                -0.0028039063327014446,
                0.00611356133595109,
                0.004406648688018322
            ]
        }
    ],
    "materials" : [
        {
            "doubleSided" : true,
            "name" : "blue07",
            "pbrMetallicRoughness" : {
                "baseColorTexture" : {
                    "extensions" : {
                        "KHR_texture_transform" : {
                            "offset" : [
                                0,
                                -1
                            ]
                        }
                    },
                    "index" : 0
                },
                "metallicFactor" : 0,
                "roughnessFactor" : 0.4343145787715912
            }
        }
    ],
    "meshes" : [
        {
            "name" : "\uba54\uc26c",
            "primitives" : [
                {
                    "attributes" : {
                        "POSITION" : 0,
                        "NORMAL" : 1,
                        "TEXCOORD_0" : 2,
                        "TEXCOORD_1" : 3,
                        "TEXCOORD_2" : 4,
                        "TEXCOORD_3" : 5,
                        "TEXCOORD_4" : 6,
                        "TEXCOORD_5" : 7,
                        "TEXCOORD_6" : 8,
                        "TEXCOORD_7" : 9
                    },
                    "indices" : 10,
                    "material" : 0
                }
            ]
        }
    ],
    "textures" : [
        {
            "sampler" : 0,
            "source" : 0
        }
    ],
    "images" : [
        {
            "bufferView" : 11,
            "mimeType" : "image/jpeg",
            "name" : "blue07"
        }
    ],
    "accessors" : [
        {
            "bufferView" : 0,
            "componentType" : 5126,
            "count" : 32410,
            "max" : [
                2.162672281265259,
                2.327752113342285,
                0.67207270860672
            ],
            "min" : [
                -2.2634999752044678,
                -2.2362473011016846,
                -1.2761139869689941
            ],
            "type" : "VEC3"
        },
        {
            "bufferView" : 1,
            "componentType" : 5126,
            "count" : 32410,
            "type" : "VEC3"
        },
        {
            "bufferView" : 2,
            "componentType" : 5126,
            "count" : 32410,
            "type" : "VEC2"
        },
        {
            "bufferView" : 3,
            "componentType" : 5126,
            "count" : 32410,
            "type" : "VEC2"
        },
        {
            "bufferView" : 4,
            "componentType" : 5126,
            "count" : 32410,
            "type" : "VEC2"
        },
        {
            "bufferView" : 5,
            "componentType" : 5126,
            "count" : 32410,
            "type" : "VEC2"
        },
        {
            "bufferView" : 6,
            "componentType" : 5126,
            "count" : 32410,
            "type" : "VEC2"
        },
        {
            "bufferView" : 7,
            "componentType" : 5126,
            "count" : 32410,
            "type" : "VEC2"
        },
        {
            "bufferView" : 8,
            "componentType" : 5126,
            "count" : 32410,
            "type" : "VEC2"
        },
        {
            "bufferView" : 9,
            "componentType" : 5126,
            "count" : 32410,
            "type" : "VEC2"
        },
        {
            "bufferView" : 10,
            "componentType" : 5123,
            "count" : 62454,
            "type" : "SCALAR"
        }
    ],
    "bufferViews" : [
        {
            "buffer" : 0,
            "byteLength" : 388920,
            "byteOffset" : 0
        },
        {
            "buffer" : 0,
            "byteLength" : 388920,
            "byteOffset" : 388920
        },
        {
            "buffer" : 0,
            "byteLength" : 259280,
            "byteOffset" : 777840
        },
        {
            "buffer" : 0,
            "byteLength" : 259280,
            "byteOffset" : 1037120
        },
        {
            "buffer" : 0,
            "byteLength" : 259280,
            "byteOffset" : 1296400
        },
        {
            "buffer" : 0,
            "byteLength" : 259280,
            "byteOffset" : 1555680
        },
        {
            "buffer" : 0,
            "byteLength" : 259280,
            "byteOffset" : 1814960
        },
        {
            "buffer" : 0,
            "byteLength" : 259280,
            "byteOffset" : 2074240
        },
        {
            "buffer" : 0,
            "byteLength" : 259280,
            "byteOffset" : 2333520
        },
        {
            "buffer" : 0,
            "byteLength" : 259280,
            "byteOffset" : 2592800
        },
        {
            "buffer" : 0,
            "byteLength" : 124908,
            "byteOffset" : 2852080
        },
        {
            "buffer" : 0,
            "byteLength" : 12737,
            "byteOffset" : 2976988
        }
    ],
    "samplers" : [
        {
            "magFilter" : 9729,
            "minFilter" : 9987
        }
    ],
    "buffers" : [
        {
            "byteLength" : 2989728,
            "uri" : "data:application/octet-stream;base64,"
        }
    ]
}
