{
    "asset": {
        "version": "2.0",
        "generator": "Open Asset Import Library (assimp v5.0.5eb040c7)"
    },
    "accessors": [
        {
            "bufferView": 0,
            "byteOffset": 0,
            "componentType": 5126,
            "count": 802,
            "type": "VEC3",
            "max": [
                23.24609375,
                53.131649017333987,
                -0.0
            ],
            "min": [
                -23.24609375,
                0.0,
                -85.17694854736328
            ]
        },
        {
            "bufferView": 1,
            "byteOffset": 0,
            "componentType": 5126,
            "count": 802,
            "type": "VEC3",
            "max": [
                0.9309995174407959,
                0.9987606406211853,
                0.9961240887641907
            ],
            "min": [
                -0.8714994788169861,
                -0.9873269200325012,
                -0.8036828637123108
            ]
        },
        {
            "bufferView": 2,
            "byteOffset": 0,
            "componentType": 5125,
            "count": 4416,
            "type": "SCALAR",
            "max": [
                801
            ],
            "min": [
                0
            ]
        },
        {
            "bufferView": 3,
            "byteOffset": 0,
            "componentType": 5126,
            "count": 802,
            "type": "VEC3",
            "max": [
                23.24609375,
                53.131649017333987,
                -0.0
            ],
            "min": [
                -23.24609375,
                0.0,
                -85.17694854736328
            ]
        },
        {
            "bufferView": 4,
            "byteOffset": 0,
            "componentType": 5126,
            "count": 802,
            "type": "VEC3",
            "max": [
                0.9309995174407959,
                0.9987606406211853,
                0.9961240887641907
            ],
            "min": [
                -0.8714994788169861,
                -0.9873269200325012,
                -0.8036828637123108
            ]
        },
        {
            "bufferView": 5,
            "byteOffset": 0,
            "componentType": 5125,
            "count": 4416,
            "type": "SCALAR",
            "max": [
                801
            ],
            "min": [
                0
            ]
        },
        {
            "bufferView": 6,
            "byteOffset": 0,
            "componentType": 5126,
            "count": 114,
            "type": "VEC3",
            "max": [
                4.994680881500244,
                27.05390167236328,
                4.994680881500244
            ],
            "min": [
                -4.994680881500244,
                -27.05390167236328,
                -4.994680881500244
            ]
        },
        {
            "bufferView": 7,
            "byteOffset": 0,
            "componentType": 5126,
            "count": 114,
            "type": "VEC3",
            "max": [
                1.0,
                1.0,
                1.0
            ],
            "min": [
                -1.0,
                -1.0,
                -1.0
            ]
        },
        {
            "bufferView": 8,
            "byteOffset": 0,
            "componentType": 5125,
            "count": 480,
            "type": "SCALAR",
            "max": [
                113
            ],
            "min": [
                0
            ]
        },
        {
            "bufferView": 9,
            "byteOffset": 0,
            "componentType": 5126,
            "count": 3088,
            "type": "VEC3",
            "max": [
                84.3515625,
                144.9583282470703,
                87.83342742919922
            ],
            "min": [
                -87.26618194580078,
                -144.9583282470703,
                -42.13193893432617
            ]
        },
        {
            "bufferView": 10,
            "byteOffset": 0,
            "componentType": 5126,
            "count": 3088,
            "type": "VEC3",
            "max": [
                1.0,
                1.0,
                1.0
            ],
            "min": [
                -1.0,
                -1.0,
                -1.0
            ]
        },
        {
            "bufferView": 11,
            "byteOffset": 0,
            "componentType": 5125,
            "count": 15576,
            "type": "SCALAR",
            "max": [
                3087
            ],
            "min": [
                0
            ]
        },
        {
            "bufferView": 12,
            "byteOffset": 0,
            "componentType": 5126,
            "count": 3119,
            "type": "VEC3",
            "max": [
                84.3515625,
                144.9583282470703,
                87.83343505859375
            ],
            "min": [
                -87.26618194580078,
                -144.9583282470703,
                -87.83343505859375
            ]
        },
        {
            "bufferView": 13,
            "byteOffset": 0,
            "componentType": 5126,
            "count": 3119,
            "type": "VEC3",
            "max": [
                0.9999856948852539,
                0.9971926808357239,
                0.9999998807907105
            ],
            "min": [
                -0.9986447095870972,
                -0.9971926212310791,
                -1.0
            ]
        },
        {
            "bufferView": 14,
            "byteOffset": 0,
            "componentType": 5125,
            "count": 17142,
            "type": "SCALAR",
            "max": [
                3118
            ],
            "min": [
                0
            ]
        },
        {
            "bufferView": 15,
            "byteOffset": 0,
            "componentType": 5126,
            "count": 1014,
            "type": "VEC3",
            "max": [
                65.30635070800781,
                65.45895385742188,
                65.15410614013672
            ],
            "min": [
                -65.30635070800781,
                -65.45895385742188,
                -65.15410614013672
            ]
        },
        {
            "bufferView": 16,
            "byteOffset": 0,
            "componentType": 5126,
            "count": 1014,
            "type": "VEC3",
            "max": [
                0.9976686835289002,
                1.0,
                0.9953428506851196
            ],
            "min": [
                -0.9976686835289002,
                -1.0,
                -0.9953428506851196
            ]
        },
        {
            "bufferView": 17,
            "byteOffset": 0,
            "componentType": 5125,
            "count": 6072,
            "type": "SCALAR",
            "max": [
                1013
            ],
            "min": [
                0
            ]
        }
    ],
    "buffers": [
        {
            "byteLength": 406944,
            "uri": "result.bin"
        }
    ],
    "bufferViews": [
        {
            "buffer": 0,
            "byteOffset": 0,
            "byteLength": 9624,
            "target": 34962
        },
        {
            "buffer": 0,
            "byteOffset": 9624,
            "byteLength": 9624,
            "target": 34962
        },
        {
            "buffer": 0,
            "byteOffset": 19248,
            "byteLength": 17664,
            "target": 34963
        },
        {
            "buffer": 0,
            "byteOffset": 36912,
            "byteLength": 9624,
            "target": 34962
        },
        {
            "buffer": 0,
            "byteOffset": 46536,
            "byteLength": 9624,
            "target": 34962
        },
        {
            "buffer": 0,
            "byteOffset": 56160,
            "byteLength": 17664,
            "target": 34963
        },
        {
            "buffer": 0,
            "byteOffset": 73824,
            "byteLength": 1368,
            "target": 34962
        },
        {
            "buffer": 0,
            "byteOffset": 75192,
            "byteLength": 1368,
            "target": 34962
        },
        {
            "buffer": 0,
            "byteOffset": 76560,
            "byteLength": 1920,
            "target": 34963
        },
        {
            "buffer": 0,
            "byteOffset": 78480,
            "byteLength": 37056,
            "target": 34962
        },
        {
            "buffer": 0,
            "byteOffset": 115536,
            "byteLength": 37056,
            "target": 34962
        },
        {
            "buffer": 0,
            "byteOffset": 152592,
            "byteLength": 62304,
            "target": 34963
        },
        {
            "buffer": 0,
            "byteOffset": 214896,
            "byteLength": 37428,
            "target": 34962
        },
        {
            "buffer": 0,
            "byteOffset": 252324,
            "byteLength": 37428,
            "target": 34962
        },
        {
            "buffer": 0,
            "byteOffset": 289752,
            "byteLength": 68568,
            "target": 34963
        },
        {
            "buffer": 0,
            "byteOffset": 358320,
            "byteLength": 12168,
            "target": 34962
        },
        {
            "buffer": 0,
            "byteOffset": 370488,
            "byteLength": 12168,
            "target": 34962
        },
        {
            "buffer": 0,
            "byteOffset": 382656,
            "byteLength": 24288,
            "target": 34963
        }
    ],
    "materials": [
        {
            "name": "Mat.2",
            "pbrMetallicRoughness": {
                "baseColorFactor": [
                    0.36550000309944155,
                    0.5099999904632568,
                    0.0,
                    1.0
                ],
                "metallicFactor": 0.0
            }
        },
        {
            "name": "Mat",
            "pbrMetallicRoughness": {
                "baseColorFactor": [
                    0.5948333144187927,
                    0.8299999833106995,
                    0.0,
                    1.0
                ],
                "metallicFactor": 0.0
            }
        },
        {
            "name": "Mat.1",
            "pbrMetallicRoughness": {
                "baseColorFactor": [
                    0.6333333253860474,
                    1.0,
                    0.0,
                    1.0
                ],
                "metallicFactor": 0.0
            }
        }
    ],
    "meshes": [
        {
            "name": "Cube_1",
            "primitives": [
                {
                    "mode": 4,
                    "material": 0,
                    "indices": 2,
                    "attributes": {
                        "POSITION": 0,
                        "NORMAL": 1
                    }
                }
            ]
        },
        {
            "name": "Cube",
            "primitives": [
                {
                    "mode": 4,
                    "material": 0,
                    "indices": 5,
                    "attributes": {
                        "POSITION": 3,
                        "NORMAL": 4
                    }
                }
            ]
        },
        {
            "name": "Cylinder",
            "primitives": [
                {
                    "mode": 4,
                    "material": 0,
                    "indices": 8,
                    "attributes": {
                        "POSITION": 6,
                        "NORMAL": 7
                    }
                }
            ]
        },
        {
            "name": "h",
            "primitives": [
                {
                    "mode": 4,
                    "material": 0,
                    "indices": 11,
                    "attributes": {
                        "POSITION": 9,
                        "NORMAL": 10
                    }
                },
                {
                    "mode": 4,
                    "material": 1,
                    "indices": 14,
                    "attributes": {
                        "POSITION": 12,
                        "NORMAL": 13
                    }
                }
            ]
        },
        {
            "name": "k",
            "primitives": [
                {
                    "mode": 4,
                    "material": 2,
                    "indices": 17,
                    "attributes": {
                        "POSITION": 15,
                        "NORMAL": 16
                    }
                }
            ]
        }
    ],
    "nodes": [
        {
            "name": "RootNode",
            "children": [
                1,
                5
            ]
        },
        {
            "name": "CINEMA_4D_Editor_$AssimpFbx$_Translation",
            "matrix": [
                1.0,
                0.0,
                0.0,
                0.0,
                0.0,
                1.0,
                0.0,
                0.0,
                0.0,
                0.0,
                1.0,
                0.0,
                472.7130432128906,
                -22.930299758911134,
                968.0647583007813,
                1.0
            ],
            "children": [
                2
            ]
        },
        {
            "name": "CINEMA_4D_Editor_$AssimpFbx$_Rotation",
            "matrix": [
                0.8967363238334656,
                0.0,
                -0.44256526231765749,
                0.0,
                0.03027033433318138,
                0.9976581335067749,
                0.06133447587490082,
                0.0,
                0.4415288269519806,
                -0.06839744746685028,
                0.8946362733840942,
                0.0,
                0.0,
                0.0,
                0.0,
                1.0
            ],
            "children": [
                3
            ]
        },
        {
            "name": "CINEMA_4D_Editor_$AssimpFbx$_PostRotation",
            "matrix": [
                -4.371138828673793e-8,
                -0.0,
                -1.0,
                -0.0,
                -0.0,
                1.0,
                -0.0,
                -0.0,
                1.0,
                -0.0,
                -4.371138828673793e-8,
                -0.0,
                -0.0,
                -0.0,
                -0.0,
                1.0
            ],
            "children": [
                4
            ]
        },
        {
            "name": "CINEMA_4D_Editor"
        },
        {
            "name": "kong",
            "matrix": [
                1.0,
                0.0,
                0.0,
                0.0,
                0.0,
                1.0,
                0.0,
                0.0,
                0.0,
                0.0,
                1.0,
                0.0,
                -0.07855228334665299,
                48.72902297973633,
                8.48184585571289,
                1.0
            ],
            "children": [
                6,
                10,
                11
            ]
        },
        {
            "name": "r",
            "matrix": [
                1.0,
                0.0,
                0.0,
                0.0,
                0.0,
                1.0,
                0.0,
                0.0,
                0.0,
                0.0,
                1.0,
                0.0,
                -0.15710456669330598,
                80.72701263427735,
                -8.731385231018067,
                1.0
            ],
            "children": [
                7,
                8,
                9
            ]
        },
        {
            "name": "Cube_1",
            "matrix": [
                -4.371138828673793e-8,
                0.0,
                1.0,
                0.0,
                0.5,
                0.8660253882408142,
                2.1855694143368966e-8,
                0.0,
                -0.8660253882408142,
                0.5,
                -3.785517321830412e-8,
                0.0,
                -1.506157636642456,
                8.74138069152832,
                -6.375575065612793,
                1.0
            ],
            "mesh": 0
        },
        {
            "name": "Cube",
            "matrix": [
                -4.371138828673793e-8,
                0.0,
                -1.0,
                0.0,
                -0.5,
                0.8660253882408142,
                2.1855694143368966e-8,
                0.0,
                0.8660253882408142,
                0.5,
                -3.785517321830412e-8,
                0.0,
                1.2705007791519166,
                8.74138069152832,
                6.126035213470459,
                1.0
            ],
            "mesh": 1
        },
        {
            "name": "Cylinder",
            "matrix": [
                1.0,
                0.0,
                0.0,
                0.0,
                0.0,
                1.0,
                0.0,
                0.0,
                0.0,
                0.0,
                1.0,
                0.0,
                0.23565685749053956,
                -17.48276138305664,
                0.2495398074388504,
                1.0
            ],
            "mesh": 2
        },
        {
            "name": "h",
            "matrix": [
                -4.371138828673793e-8,
                -1.0,
                0.0,
                0.0,
                1.0,
                -4.371138828673793e-8,
                0.0,
                0.0,
                0.0,
                0.0,
                1.0,
                0.0,
                0.07855228334665299,
                -31.997987747192384,
                -8.48184585571289,
                1.0
            ],
            "mesh": 3
        },
        {
            "name": "k",
            "matrix": [
                -4.371138828673793e-8,
                0.0,
                -1.0,
                0.0,
                0.0,
                1.0,
                0.0,
                0.0,
                1.0,
                0.0,
                -4.371138828673793e-8,
                0.0,
                0.07855228334665299,
                -48.72902297973633,
                17.21323013305664,
                1.0
            ],
            "mesh": 4
        }
    ],
    "scenes": [
        {
            "nodes": [
                0
            ]
        }
    ],
    "scene": 0
}