{
  "accessors": [
    {
      "bufferView": 2,
      "componentType": 5126,
      "count": 3311,
      "max": [
        1.8045400381088257,
        0.72605001926422119,
        3.5666499137878418
      ],
      "min": [
        -1.6342400312423706,
        -1.5061800479888916,
        0.12841999530792236
      ],
      "type": "VEC3"
    },
    {
      "bufferView": 2,
      "byteOffset": 39732,
      "componentType": 5126,
      "count": 3311,
      "max": [
        1,
        1,
        1
      ],
      "min": [
        -1,
        -1,
        -1
      ],
      "type": "VEC3"
    },
    {
      "bufferView": 3,
      "componentType": 5126,
      "count": 3311,
      "max": [
        1,
        1,
        1,
        1
      ],
      "min": [
        -0.99999815225601196,
        -1,
        -0.99997627735137939,
        -1
      ],
      "type": "VEC4"
    },
    {
      "bufferView": 2,
      "byteOffset": 79464,
      "componentType": 5126,
      "count": 3311,
      "max": [
        1,
        1,
        1
      ],
      "min": [
        1,
        1,
        1
      ],
      "type": "VEC3"
    },
    {
      "bufferView": 1,
      "componentType": 5126,
      "count": 3311,
      "max": [
        0.99007999897003174,
        0.98337000608444214
      ],
      "min": [
        0.011009999550879002,
        0.017489999532699585
      ],
      "type": "VEC2"
    },
    {
      "bufferView": 0,
      "componentType": 5125,
      "count": 10647,
      "max": [
        3310
      ],
      "min": [
        0
      ],
      "type": "SCALAR"
    },
    {
      "bufferView": 2,
      "byteOffset": 119196,
      "componentType": 5126,
      "count": 505,
      "max": [
        2.3568599224090576,
        1.8950599431991577,
        0.46503999829292297
      ],
      "min": [
        -2.3864800930023193,
        -2.8482799530029297,
        -0.39364001154899597
      ],
      "type": "VEC3"
    },
    {
      "bufferView": 2,
      "byteOffset": 125256,
      "componentType": 5126,
      "count": 505,
      "max": [
        0.99344468116760254,
        0.98555988073348999,
        1
      ],
      "min": [
        -0.97505581378936768,
        -0.93956196308135986,
        -0.7392425537109375
      ],
      "type": "VEC3"
    },
    {
      "bufferView": 3,
      "byteOffset": 52976,
      "componentType": 5126,
      "count": 505,
      "max": [
        0.9975016713142395,
        0.99998390674591064,
        0.82958441972732544,
        1
      ],
      "min": [
        -0.99562674760818481,
        -0.98921602964401245,
        -0.80441766977310181,
        -1
      ],
      "type": "VEC4"
    },
    {
      "bufferView": 2,
      "byteOffset": 131316,
      "componentType": 5126,
      "count": 505,
      "max": [
        1,
        1,
        1
      ],
      "min": [
        1,
        1,
        1
      ],
      "type": "VEC3"
    },
    {
      "bufferView": 1,
      "byteOffset": 26488,
      "componentType": 5126,
      "count": 505,
      "max": [
        0.99190002679824829,
        0.97434002161026001
      ],
      "min": [
        0.0081000002101063728,
        0.054140001535415649
      ],
      "type": "VEC2"
    },
    {
      "bufferView": 0,
      "byteOffset": 42588,
      "componentType": 5125,
      "count": 1008,
      "max": [
        504
      ],
      "min": [
        0
      ],
      "type": "SCALAR"
    }
  ],
  "asset": {
    "extras": {
      "author": "Bradobrey (https://sketchfab.com/bradobrey)",
      "license": "CC-BY-4.0 (http://creativecommons.org/licenses/by/4.0/)",
      "source": "https://sketchfab.com/models/3128ee34c658466ba00699959459eb2e",
      "title": "town hall"
    },
    "generator": "Sketchfab-3.18.6",
    "version": "2.0"
  },
  "bufferViews": [
    {
      "buffer": 0,
      "byteLength": 46620,
      "byteOffset": 0,
      "name": "floatBufferViews",
      "target": 34963
    },
    {
      "buffer": 0,
      "byteLength": 30528,
      "byteOffset": 46620,
      "byteStride": 8,
      "name": "floatBufferViews",
      "target": 34962
    },
    {
      "buffer": 0,
      "byteLength": 137376,
      "byteOffset": 77148,
      "byteStride": 12,
      "name": "floatBufferViews",
      "target": 34962
    },
    {
      "buffer": 0,
      "byteLength": 61056,
      "byteOffset": 214524,
      "byteStride": 16,
      "name": "floatBufferViews",
      "target": 34962
    }
  ],
  "buffers": [
    {
      "byteLength": 275580,
      "uri": "scene3.bin"
    }
  ],
  "extensionsRequired": [
    "KHR_materials_pbrSpecularGlossiness"
  ],
  "extensionsUsed": [
    "KHR_materials_pbrSpecularGlossiness"
  ],
  "images": [
    {
      "uri": "textures/Material.004_diffuse.png"
    },
    {
      "uri": "textures/Material_diffuse.png"
    }
  ],
  "materials": [
    {
      "doubleSided": true,
      "emissiveFactor": [
        0,
        0,
        0
      ],
      "extensions": {
        "KHR_materials_pbrSpecularGlossiness": {
          "diffuseFactor": [
            1,
            1,
            1,
            1
          ],
          "diffuseTexture": {
            "index": 1,
            "texCoord": 0
          },
          "glossinessFactor": 0,
          "specularFactor": [
            0,
            0,
            0
          ]
        }
      },
      "name": "Material"
    },
    {
      "doubleSided": true,
      "emissiveFactor": [
        0,
        0,
        0
      ],
      "extensions": {
        "KHR_materials_pbrSpecularGlossiness": {
          "diffuseFactor": [
            1,
            1,
            1,
            1
          ],
          "diffuseTexture": {
            "index": 0,
            "texCoord": 0
          },
          "glossinessFactor": 0,
          "specularFactor": [
            0,
            0,
            0
          ]
        }
      },
      "name": "Material.004"
    }
  ],
  "meshes": [
    {
      "name": "Cube.002",
      "primitives": [
        {
          "attributes": {
            "COLOR_0": 3,
            "NORMAL": 1,
            "POSITION": 0,
            "TANGENT": 2,
            "TEXCOORD_0": 4
          },
          "indices": 5,
          "material": 0,
          "mode": 4
        }
      ]
    },
    {
      "name": "Cube.002",
      "primitives": [
        {
          "attributes": {
            "COLOR_0": 9,
            "NORMAL": 7,
            "POSITION": 6,
            "TANGENT": 8,
            "TEXCOORD_0": 10
          },
          "indices": 11,
          "material": 1,
          "mode": 4
        }
      ]
    }
  ],
  "nodes": [
    {
      "children": [
        1
      ],
      "name": "RootNode (gltf orientation matrix)",
      "rotation": [
        -0.70710678118654746,
        -0,
        -0,
        0.70710678118654757
      ]
    },
    {
      "children": [
        2
      ],
      "name": "RootNode (model correction matrix)"
    },
    {
      "children": [
        3
      ],
      "name": "Root"
    },
    {
      "children": [
        4,
        5
      ],
      "matrix": [
        0.92690000000000006,
        0,
        0,
        0,
        0,
        0.92690000000000006,
        0,
        0,
        0,
        0,
        0.92690000000000006,
        0,
        0.13128000000000001,
        0.43182000000000009,
        -0.00024000000000000009,
        1
      ],
      "name": "Cube.002"
    },
    {
      "mesh": 0,
      "name": "Cube.002"
    },
    {
      "mesh": 1,
      "name": "Cube.002"
    }
  ],
  "samplers": [
    {
      "magFilter": 9729,
      "minFilter": 9987,
      "wrapS": 10497,
      "wrapT": 10497
    }
  ],
  "scene": 0,
  "scenes": [
    {
      "name": "OSG_Scene",
      "nodes": [
        0
      ]
    }
  ],
  "textures": [
    {
      "sampler": 0,
      "source": 0
    },
    {
      "sampler": 0,
      "source": 1
    }
  ]
}

