{
  "accessors": [
    {
      "bufferView": 2,
      "componentType": 5126,
      "count": 2599,
      "max": [
        72.403633117675781,
        207.74928283691406,
        28.212774276733398
      ],
      "min": [
        -90.979972839355469,
        0,
        0.007426251657307148
      ],
      "type": "VEC3"
    },
    {
      "bufferView": 2,
      "byteOffset": 31188,
      "componentType": 5126,
      "count": 2599,
      "max": [
        0.99989724159240723,
        0.99974876642227173,
        1
      ],
      "min": [
        -0.99989736080169678,
        -0.99999004602432251,
        -0.99836117029190063
      ],
      "type": "VEC3"
    },
    {
      "bufferView": 3,
      "componentType": 5126,
      "count": 2599,
      "max": [
        0.99998998641967773,
        0.99893397092819214,
        1,
        1
      ],
      "min": [
        -0.99986493587493896,
        -0.9996178150177002,
        -1,
        -1
      ],
      "type": "VEC4"
    },
    {
      "bufferView": 1,
      "componentType": 5126,
      "count": 2599,
      "max": [
        0.98695540428161621,
        0.98986625671386719
      ],
      "min": [
        0.0076859560795128345,
        0.011908496730029583
      ],
      "type": "VEC2"
    },
    {
      "bufferView": 1,
      "byteOffset": 20792,
      "componentType": 5126,
      "count": 2599,
      "max": [
        0.98695540428161621,
        0.98986625671386719
      ],
      "min": [
        0.0076859560795128345,
        0.011908496730029583
      ],
      "type": "VEC2"
    },
    {
      "bufferView": 0,
      "componentType": 5125,
      "count": 2694,
      "max": [
        2598
      ],
      "min": [
        0
      ],
      "type": "SCALAR"
    }
  ],
  "asset": {
    "extras": {
      "author": "Karpulya (https://sketchfab.com/Karpulya)",
      "license": "CC-BY-4.0 (http://creativecommons.org/licenses/by/4.0/)",
      "source": "https://sketchfab.com/3d-models/eden-arena-8f1caa3250424e8e8769a405f1194468",
      "title": "Eden Arena"
    },
    "generator": "Sketchfab-6.43.0",
    "version": "2.0"
  },
  "bufferViews": [
    {
      "buffer": 0,
      "byteLength": 10776,
      "byteOffset": 0,
      "name": "floatBufferViews",
      "target": 34963
    },
    {
      "buffer": 0,
      "byteLength": 41584,
      "byteOffset": 10776,
      "byteStride": 8,
      "name": "floatBufferViews",
      "target": 34962
    },
    {
      "buffer": 0,
      "byteLength": 62376,
      "byteOffset": 52360,
      "byteStride": 12,
      "name": "floatBufferViews",
      "target": 34962
    },
    {
      "buffer": 0,
      "byteLength": 41584,
      "byteOffset": 114736,
      "byteStride": 16,
      "name": "floatBufferViews",
      "target": 34962
    }
  ],
  "buffers": [
    {
      "byteLength": 156320,
      "uri": "stadium1.bin"
    }
  ],
  "extensionsRequired": [
    "KHR_materials_pbrSpecularGlossiness"
  ],
  "extensionsUsed": [
    "KHR_materials_pbrSpecularGlossiness"
  ],
  "images": [
    {
      "uri": "textures/material_diffuse1.png"
    },
    {
      "uri": "textures/material_specularGlossiness1.png"
    }
  ],
  "materials": [
    {
      "alphaMode": "BLEND",
      "doubleSided": true,
      "emissiveFactor": [
        0,
        0,
        0
      ],
      "extensions": {
        "KHR_materials_pbrSpecularGlossiness": {
          "diffuseFactor": [
            1,
            1,
            1,
            1
          ],
          "diffuseTexture": {
            "index": 0,
            "texCoord": 0
          },
          "glossinessFactor": 0.10702864035024488,
          "specularFactor": [
            1,
            1,
            1
          ],
          "specularGlossinessTexture": {
            "index": 1,
            "texCoord": 0
          }
        }
      },
      "name": "material"
    }
  ],
  "meshes": [
    {
      "name": "S_S_0",
      "primitives": [
        {
          "attributes": {
            "NORMAL": 1,
            "POSITION": 0,
            "TANGENT": 2,
            "TEXCOORD_0": 3,
            "TEXCOORD_1": 4
          },
          "indices": 5,
          "material": 0,
          "mode": 4
        }
      ]
    }
  ],
  "nodes": [
    {
      "children": [
        1
      ],
      "name": "RootNode (gltf orientation matrix)",
      "rotation": [
        -0.70710678118654746,
        -0,
        -0,
        0.70710678118654757
      ]
    },
    {
      "children": [
        2
      ],
      "name": "RootNode (model correction matrix)"
    },
    {
      "children": [
        3
      ],
      "matrix": [
        1,
        0,
        0,
        0,
        0,
        0,
        1,
        0,
        0,
        -1,
        0,
        0,
        0,
        0,
        0,
        1
      ],
      "name": "f7050977e7e94cb8be034876281a3e4b.fbx"
    },
    {
      "children": [
        4
      ],
      "name": "RootNode"
    },
    {
      "children": [
        5
      ],
      "matrix": [
        0.95999177552234127,
        0.00037328723538736962,
        -0.0039654543612943245,
        0,
        -0.0041306677108564858,
        -3.7427323824532414e-05,
        -0.99999158726563864,
        0,
        -0.00038899218388191073,
        1.0000000429102704,
        -3.5820829327883669e-05,
        0,
        0,
        0,
        0,
        1
      ],
      "name": "S"
    },
    {
      "mesh": 0,
      "name": "S_S_0"
    }
  ],
  "samplers": [
    {
      "magFilter": 9729,
      "minFilter": 9987,
      "wrapS": 10497,
      "wrapT": 10497
    }
  ],
  "scene": 0,
  "scenes": [
    {
      "name": "OSG_Scene",
      "nodes": [
        0
      ]
    }
  ],
  "textures": [
    {
      "sampler": 0,
      "source": 0
    },
    {
      "sampler": 0,
      "source": 1
    }
  ]
}

